<?xml version="1.0" encoding="UTF-8" standalone="no"?>
<!-- Created with Inkscape (http://www.inkscape.org/) -->

<svg
   width="8.4503469in"
   height="4.0385356in"
   viewBox="0 0 811.23331 387.69942"
   version="1.1"
   id="svg1"
   xmlns="http://www.w3.org/2000/svg"
   xmlns:svg="http://www.w3.org/2000/svg">
  <defs
     id="defs1">
    <clipPath
       clipPathUnits="userSpaceOnUse"
       id="clipPath3">
      <rect
         style="fill:#000000;stroke-width:0.264583"
         id="rect4"
         width="91.040199"
         height="63.802761"
         x="68.653259"
         y="119.7701" />
    </clipPath>
    <clipPath
       clipPathUnits="userSpaceOnUse"
       id="clipPath17">
      <rect
         style="fill:#000000;stroke:#000000;stroke-width:0.264583"
         id="rect18"
         width="443.26132"
         height="143.27638"
         x="-108.88448"
         y="47.851994" />
    </clipPath>
  </defs>
  <g
     id="layer1"
     transform="translate(-164.98802,-215.35629)">
    <path
       style="fill:#000000;fill-opacity:1;stroke:#000000;stroke-opacity:1"
       d="m 126.60595,167.07999 c 5.91832,-1.76569 13.04063,-7.169 13.04063,-9.89323 0,-2.60068 -10.75173,-14.17575 -15.07146,-16.2256 -5.44985,-2.58612 -10.8931,-2.14028 -17.06124,1.39744 -6.26949,3.59587 -14.006724,12.12943 -14.016494,15.45913 -0.008,2.71172 5.47547,7.24187 11.267844,9.30896 5.25689,1.876 15.4693,1.85416 21.84072,-0.0467 z m -23.70318,-5.48924 c -5.137174,-3.54065 -5.386244,-4.71193 -1.79479,-8.44013 4.17556,-4.33457 5.04813,-4.30162 3.68521,0.13917 -0.85248,2.77762 -0.73468,4.25876 0.54229,6.8185 1.85039,3.7092 1.29189,4.04954 -2.43271,1.48246 z m 21.00882,0.81249 c 0,-0.4763 0.7123,-1.45715 1.58289,-2.17967 0.87059,-0.72252 1.87925,-3.16703 2.24147,-5.43224 l 0.65859,-4.11856 3.00272,2.87679 3.00273,2.87679 -2.22575,2.3692 c -2.34772,2.49903 -8.26265,5.08164 -8.26265,3.60769 z m -13.11617,-3.60378 c -2.86814,-4.37734 0.94658,-10.10709 6.72903,-10.10709 2.72086,0 5.61911,4.29531 4.67799,6.93294 -2.11598,5.93036 -8.44682,7.69199 -11.40702,3.17415 z m 36.98091,-10.83973 c 3.67578,-2.71823 4.39334,-5.24956 1.77312,-6.25504 -2.26178,-0.86792 -7.80487,4.65064 -7.80487,7.77035 0,2.72765 0.44542,2.61575 6.03175,-1.51531 z m -53.236724,1.20505 c 0,-2.61355 -3.07435,-7.8154 -4.61899,-7.8154 -0.77996,0 -1.96193,0.65526 -2.62659,1.45613 -0.94551,1.13926 -0.61077,2.16647 1.5383,4.72049 2.94289,3.49743 5.70728,4.29119 5.70728,1.63878 z m 42.926994,-12.5786 c 3.58029,-4.98546 3.65453,-7.82479 0.20459,-7.82479 -1.34119,0 -2.98391,1.68662 -4.7899,4.91789 -4.73422,8.47044 -1.07574,10.78977 4.58531,2.9069 z m -33.48599,-1.40235 c 0,-6.01937 -1.80056,-8.26585 -5.176854,-6.45891 -2.05511,1.09986 -2.08374,1.35009 -0.56912,4.97508 3.376534,8.08117 5.745974,8.69305 5.745974,1.48383 z m 17.32144,-4.36345 c 0.96529,-2.9062 1.49009,-5.97453 1.16623,-6.81849 -0.71189,-1.85515 -3.95337,-2.0122 -5.68988,-0.27569 -1.32272,1.32271 -1.76125,10.47707 -0.55947,11.67885 1.78668,1.78667 3.47169,0.26689 5.08312,-4.58467 z"
       id="path1"
       clip-path="url(#clipPath3)"
       transform="matrix(3.7020908,0,0,3.7020908,414.93598,-236.34385)" />
    <g
       id="g2"
       transform="matrix(2.0502425,0,0,2.0502425,283.9129,211.19621)"
       clip-path="url(#clipPath17)">
      <path
         id="path2"
         style="fill:#000000"
         d="m 204.36539,99.208735 c -4.41117,0.09382 -4.58672,0.117982 -4.78886,0.669726 -0.26566,0.725109 0.35135,7.819479 1.02785,11.817879 0.66907,3.95449 2.16961,9.14797 3.35535,11.61377 0.63466,1.31977 1.49733,2.52519 2.651,3.70416 2.02377,2.06815 2.22715,2.42213 2.9807,5.18367 0.93731,3.4352 2.06207,4.42974 3.93051,3.47524 1.27994,-0.65394 2.32672,-0.76302 2.79827,-0.29146 0.36331,0.36334 0.42995,1.13599 0.42995,5.01158 0,4.11049 0.0714,4.85132 0.69557,7.19129 0.56158,2.10539 0.72746,3.45963 0.85989,7.01921 0.0902,2.42579 0.26273,4.50938 0.38344,4.63021 0.12071,0.12082 1.96624,0.28064 4.10104,0.35554 4.75267,0.16674 11.40177,0.003 11.98273,-0.29456 0.56818,-0.29137 0.76275,-1.39113 0.76275,-4.31343 0,-3.54726 -0.44734,-6.53402 -1.34411,-8.97827 -1.73047,-4.71674 -1.63017,-5.35628 1.1467,-7.31273 2.96395,-2.08822 5.66852,-4.49022 7.24969,-6.43836 1.34967,-1.66295 1.49988,-1.98803 1.9575,-4.23334 0.63748,-3.12777 2.32625,-6.56671 4.49172,-9.14569 0.90103,-1.07311 1.85235,-2.44233 2.11408,-3.04271 0.65854,-1.51066 1.51474,-5.964 1.96474,-10.21953 0.42896,-4.05658 0.42743,-4.0612 -1.58233,-4.83227 -0.79977,-0.30678 -1.36335,-0.35089 -2.24896,-0.17621 -4.56134,0.89969 -7.75896,0.80535 -10.27689,-0.30283 -0.63696,-0.28033 -1.25203,-0.509525 -1.36633,-0.509525 -0.27315,0 -1.32923,2.828235 -2.47013,6.614585 -1.20517,3.99957 -1.01288,3.51139 -3.25045,8.24704 -2.23272,4.72539 -3.14253,7.21952 -3.40754,9.34051 -0.1688,1.351 -0.23298,1.46338 -0.74828,1.30794 -1.52648,-0.46045 -3.15255,-1.59878 -3.75739,-2.63085 -0.83006,-1.4164 -1.32871,-1.64253 -4.32635,-1.96061 -1.47647,-0.15667 -2.58043,-0.40277 -2.70785,-0.60358 -0.11832,-0.18646 -0.21924,-2.30353 -0.22324,-4.70462 -0.009,-4.95677 -0.36515,-6.99083 -1.60093,-9.15086 -0.43474,-0.75983 -1.08446,-2.19362 -1.44436,-3.18585 -1.28594,-3.545338 -2.39524,-4.002755 -9.33948,-3.855065 z m 72.96402,0.01137 -3.50056,0.09457 -3.50056,0.09508 -1.9482,1.167885 c -2.47156,1.48139 -3.05421,1.47004 -5.77278,-0.10955 l -2.11408,-1.22835 -2.48099,0.077 -2.48047,0.07648 -0.21239,0.92604 c -0.11697,0.50932 -0.28112,3.06923 -0.36432,5.68854 -0.10658,3.3574 -0.38455,6.24568 -0.94309,9.78959 -1.02941,6.53144 -0.98648,10.25461 0.15606,13.47101 0.694,1.95368 0.73228,2.27297 0.56999,4.7625 -0.16508,2.53231 -0.36213,4.35238 -0.96221,8.88628 -0.14446,1.0914 -0.69516,3.77037 -1.2237,5.95312 -0.77405,3.19674 -0.96545,4.512 -0.98495,6.7629 -0.0229,2.64035 0.0168,2.85678 0.72037,3.92276 1.41088,2.13752 5.12196,3.06333 7.98659,1.99212 3.95067,-1.47732 6.68822,-2.07027 7.73958,-1.67638 0.39989,0.14982 1.38193,0.90676 2.1823,1.68207 0.8003,0.77532 1.6338,1.47893 1.85208,1.56373 0.87963,0.34167 2.59701,-0.15832 4.49016,-1.30742 3.35122,-2.03408 4.22976,-2.22415 10.26759,-2.22415 3.78832,0 5.37181,-0.0921 5.68958,-0.33073 0.38758,-0.29107 0.44511,-1.10322 0.48111,-6.77013 0.0361,-5.68842 -0.0104,-6.49041 -0.39946,-6.87917 -0.37755,-0.37726 -1.10986,-0.43976 -5.13406,-0.43976 h -4.69428 l -1.87327,1.13223 c -1.0304,0.62272 -2.21782,1.22941 -2.6386,1.34875 -0.73038,0.20715 -2.70002,0.0589 -6.45335,-0.48627 -2.79576,-0.40605 -3.11459,-1.25733 -2.09548,-5.59811 0.4299,-1.83116 0.70202,-2.46421 1.23971,-2.88716 0.74888,-0.58906 1.79884,-0.52864 2.89698,0.16639 0.77837,0.49268 2.72309,0.47234 3.44889,-0.0362 0.42555,-0.29809 0.91921,-0.36213 1.84536,-0.23926 0.74562,0.0989 2.25454,-0.003 3.6773,-0.24856 2.32943,-0.402 6.46601,-1.74471 7.167,-2.32648 0.26126,-0.21683 0.34107,-1.78986 0.34107,-6.72362 0,-6.2472 -0.0168,-6.44948 -0.54932,-6.73447 -0.75223,-0.40257 -2.10927,-0.13406 -5.76606,1.1405 -2.89428,1.00879 -3.27446,1.07624 -6.38462,1.12964 -2.27778,0.0391 -3.668,0.19047 -4.46536,0.48628 -1.80634,0.67014 -3.05763,0.57048 -3.74603,-0.29817 -0.49179,-0.6205 -0.55765,-0.96609 -0.44906,-2.34715 0.07,-0.89069 0.50955,-2.76664 0.97668,-4.16873 l 0.84904,-2.54972 0.64699,0.50901 c 1.15813,0.91101 2.36751,0.91645 5.2617,0.0238 1.45521,-0.44886 2.88508,-0.75657 3.17758,-0.68367 0.29251,0.0729 0.74534,0.49384 1.00614,0.93534 1.11313,1.88437 2.70383,1.77429 6.39961,-0.44235 1.45521,-0.8728 3.30068,-1.93106 4.10104,-2.3518 l 1.45521,-0.76481 0.16536,-1.85208 c 0.26625,-2.97824 0.19891,-8.32503 -0.12815,-10.18646 l -0.30179,-1.71979 -3.15227,-0.07493 c -3.12824,-0.07435 -3.16717,-0.06777 -5.12061,0.85989 -1.08265,0.51415 -2.28752,0.93483 -2.67736,0.93483 -0.38984,0 -1.51102,-0.42616 -2.49132,-0.94671 z m -115.0736,0.04082 c -1.48567,0 -1.63063,0.05256 -1.86862,0.678511 -0.14192,0.373274 -0.25996,1.593674 -0.26096,2.711984 -0.001,1.11831 -0.41817,4.45416 -0.92604,7.41298 -1.18543,6.90619 -1.18319,8.38447 0.0202,13.19248 l 0.94309,3.76979 -0.0971,8.14369 -0.0977,8.14369 -1.24281,4.7253 c -1.67659,6.37497 -1.63084,8.41262 0.23357,10.47636 0.98504,1.09034 2.36488,1.59439 4.3956,1.60559 1.23065,0.007 2.49415,0.27614 3.84473,0.81958 0.73449,0.29554 1.38908,0.25405 4.71496,-0.29869 3.79924,-0.63142 3.88256,-0.63382 5.10046,-0.16019 0.68092,0.2648 1.83347,0.70933 2.56108,0.98805 1.71985,0.65881 2.62653,0.53389 5.74074,-0.79168 l 2.56625,-1.09244 h 4.76095 c 4.61993,0 4.77365,-0.0175 5.17333,-0.58808 0.58274,-0.83194 0.61371,-12.5277 0.0357,-13.31805 -0.33946,-0.46389 -0.71691,-0.51366 -3.9026,-0.51366 -3.5126,0 -3.53637,0.004 -5.87509,1.02267 -2.65169,1.15473 -3.86808,1.18863 -5.27513,0.14831 -1.02276,-0.75616 -1.91237,-0.71637 -3.5879,0.15968 -1.86221,0.97373 -3.11215,0.94193 -4.04523,-0.10231 -1.53,-1.71236 -1.61183,-3.89701 -0.21859,-5.82032 0.9424,-1.30094 2.46608,-2.12873 4.46898,-2.42776 6.3905,-0.9541 11.84213,-1.57923 13.76918,-1.57923 0.9856,0 1.47791,-0.13949 1.86759,-0.52917 0.49767,-0.49771 0.52903,-0.87916 0.52503,-6.41614 -0.003,-4.14175 -0.10079,-6.07745 -0.33073,-6.52984 -0.52527,-1.03344 -1.57639,-1.15271 -4.66896,-0.52917 -2.34633,0.47311 -2.92365,0.50823 -3.89537,0.23617 -2.0355,-0.56991 -3.91413,-0.23801 -7.1174,1.2578 -1.59584,0.7452 -3.25886,1.42695 -3.6959,1.51515 l -0.79478,0.16072 0.17622,-2.85099 c 0.17659,-2.86126 0.84675,-6.62366 1.25212,-7.02903 0.1193,-0.11929 0.3638,0.13793 0.54363,0.57206 0.17982,0.43414 0.54283,0.98437 0.80615,1.22266 0.66493,0.60176 1.95231,0.22225 5.81515,-1.7141 4.34914,-2.18016 5.19322,-2.38487 9.82989,-2.38487 3.73613,0 3.92409,-0.0256 4.31809,-0.58808 0.34357,-0.49056 0.41186,-1.59019 0.41186,-6.63215 0,-3.66026 -0.10802,-6.24575 -0.27389,-6.555678 -0.24795,-0.46327 -0.58193,-0.511597 -3.52175,-0.511597 h -3.24734 l -1.572,0.961705 c -3.40878,2.0857 -3.51081,2.09727 -4.59248,0.52503 -0.4385,-0.63734 -0.98951,-1.232621 -1.22474,-1.322921 -0.23524,-0.09022 -2.06409,-0.163814 -4.06383,-0.163814 -3.1126,0 -3.95379,0.09521 -5.84564,0.661458 -2.72522,0.815697 -2.89083,0.815697 -6.82801,0 -1.75593,-0.363794 -3.91786,-0.661458 -4.80384,-0.661458 z m -165.1118819,0.70952 c -0.8719627,-0.0073 -1.9738873,0.01846 -3.3935914,0.0615 l -5.1149337,0.15503 -0.772045,0.86403 c -0.87323,0.97777 -0.931477,1.50067 -0.372587,3.34295 0.282064,0.92983 0.401146,2.6885 0.420646,6.21771 0.0288,5.19921 -0.03275,5.65578 -1.737362,12.81937 -1.118374,4.69872 -1.118654,5.33307 -0.0031,9.56427 1.690054,6.4105 1.764076,6.87953 1.634526,10.31875 -0.09799,2.60171 -0.269779,3.65274 -0.951363,5.82084 -1.426564,4.53799 -1.424618,7.09904 0.0062,8.72866 1.159394,1.32048 1.99279,1.38356 5.5727865,0.42168 2.7377732,-0.73557 3.4169479,-0.81597 6.89828693,-0.81597 3.21749077,0 3.93381037,-0.072 4.29327797,-0.4315 0.3745282,-0.37447 0.4208489,-1.08808 0.3498495,-5.4007 l -0.081649,-4.96869 -1.3890625,-2.74505 c -1.474341,-2.91365 -1.74054764,-4.32111 -0.9642822,-5.09737 0.2713882,-0.27134 0.6263843,-0.36085 0.9834025,-0.24753 1.1734428,0.37243 2.5336149,0.14342 4.8214111,-0.81183 5.2684912,-2.19931 5.6716082,-2.27708 11.4587322,-2.19728 l 5.198132,0.0718 0.07028,6.85177 c 0.06718,6.51142 0.03652,7.01743 -0.62115,10.18646 -0.839485,4.0452 -0.786955,6.4625 0.157096,7.22695 0.321452,0.2603 0.788127,0.47336 1.036629,0.47336 0.814737,0 3.129421,-0.78828 5.457548,-1.8588 l 2.286682,-1.05162 h 3.494878 c 2.379779,0 3.638324,-0.10553 3.944462,-0.33073 0.418943,-0.30819 0.445012,-2.26031 0.381372,-28.64114 l -0.06821,-28.31042 -3.055628,-0.0744 -3.055627,-0.0739 -1.678967,1.13223 c -4.299739,2.89953 -4.711985,2.95562 -5.95881,0.80667 -0.441783,-0.76144 -0.872968,-1.38706 -0.958598,-1.38906 -0.352777,-0.0105 -3.188948,6.40656 -3.679878,8.3261 -0.631981,2.47102 -0.694477,5.83696 -0.142627,7.69462 0.21318,0.71764 0.748968,1.87463 1.190625,2.57091 1.212223,1.91104 1.103478,2.41113 -0.725021,3.33416 -2.132889,1.07668 -3.546083,1.4056 -6.035807,1.4056 -2.439632,0 -4.109317,-0.29332 -7.9535198,-1.39785 -1.4769136,-0.42435 -2.9195609,-0.77153 -3.2054891,-0.77153 -0.4178876,0 -0.552564,-0.24107 -0.6878134,-1.22783 -0.09256,-0.67515 -0.1684651,-1.81142 -0.1684651,-2.52491 0,-0.7949 -0.409837,-2.55678 -1.0583334,-4.55011 -1.1360328,-3.4919 -1.2320676,-4.43226 -0.7441406,-7.27759 0.3700276,-2.15782 0.084265,-3.48464 -1.0366292,-4.81676 -0.87673734,-1.04192 -1.42624396,-1.360778 -4.0421305,-1.38268 z m -30.0736161,0.02946 -3.019971,0.984435 c -2.389798,0.77894 -3.489231,0.99536 -5.268929,1.03766 -1.236914,0.0294 -2.755804,0.21312 -3.374988,0.40824 l -1.125513,0.3545 -1.789555,-1.23351 c -0.984164,-0.67857 -2.144724,-1.32438 -2.578654,-1.43506 -0.433924,-0.1107 -2.098275,-0.13995 -3.698999,-0.0651 l -2.910416,0.13591 -0.163815,3.70417 c -0.09314,2.10953 -0.408577,4.88719 -0.732771,6.45232 -0.58618,2.82971 -0.554606,4.00628 0.144694,5.38778 0.433824,0.85703 0.407661,0.85177 1.492415,0.28474 0.597524,-0.31235 1.39258,-0.42616 2.701644,-0.38706 1.362224,0.0407 2.486935,-0.13122 4.233333,-0.64802 3.165052,-0.93658 4.629038,-1.21654 5.391402,-1.02991 0.63028,0.15429 0.631353,0.16085 0.484209,3.11712 -0.10961,2.20207 -0.402006,3.94729 -1.139466,6.79907 -0.823774,3.18547 -0.995775,4.30782 -1.013375,6.61458 -0.01987,2.60483 0.03216,2.89061 0.834575,4.58473 1.230584,2.59821 1.467038,4.4278 1.332218,10.30273 -0.09169,3.99584 -0.278498,6.02835 -0.870748,9.46558 -0.414814,2.40739 -0.676659,4.58033 -0.581359,4.82864 0.211204,0.55036 0.710162,0.55852 3.762044,0.0615 2.570872,-0.41869 11.37477,-2.35449 12.744958,-2.80242 1.070934,-0.35011 1.487093,-1.40182 1.103809,-2.79001 -0.14879,-0.53885 -0.705801,-1.94358 -1.237651,-3.12125 -0.890674,-1.97216 -0.96339,-2.31854 -0.92139,-4.38992 0.02988,-1.47285 0.394353,-3.84676 1.056783,-6.87916 0.985054,-4.50944 1.011504,-4.76479 0.995804,-9.78959 l -0.01654,-5.15937 -1.240234,-4.20233 c -0.68238,-2.31137 -1.240752,-4.54118 -1.240752,-4.95473 0,-0.71194 0.03866,-0.73668 0.727605,-0.47078 1.364338,0.52659 3.607389,0.32743 6.463171,-0.5736 2.128478,-0.67159 3.389848,-0.89624 5.71748,-1.01855 2.226178,-0.11699 3.055308,-0.25813 3.256132,-0.55397 0.48088,-0.70836 0.128091,-5.0155 -0.513663,-6.27197 -0.68045,-1.33222 -2.041707,-2.48381 -3.408061,-2.88303 -0.994884,-0.29068 -0.997872,-0.29586 -0.997872,-1.71979 v -1.42833 l -3.175,-0.18397 c -1.746238,-0.10126 -5.030691,-0.26252 -7.298779,-0.35812 z m 84.683719,0.02998 c -3.769198,0.003 -7.529025,0.12275 -7.722009,0.35554 -0.17129,0.20664 -0.314832,3.50796 -0.382922,8.7974 -0.106223,8.25104 -0.130756,8.57787 -0.96635,12.83229 -0.471577,2.4011 -0.921484,5.61585 -0.999938,7.14375 -0.137292,2.67384 -0.104943,2.89727 0.860929,5.95312 l 1.003556,3.17501 0.09922,9.26042 c 0.08754,8.17015 0.149474,9.29935 0.529683,9.59114 0.32008,0.24563 2.25632,0.33072 7.524606,0.33072 6.74036,0 7.119431,-0.0263 7.622273,-0.52914 0.522467,-0.52243 0.529167,-0.88232 0.529167,-28.39001 0,-21.31613 -0.07489,-27.93486 -0.31781,-28.17779 -0.232427,-0.23243 -4.0112,-0.3453 -7.780404,-0.3421 z m 24.901323,0.0248 c -5.28713,0 -5.658838,0.0921 -7.968506,1.97351 -1.515314,1.23437 -2.444718,1.63919 -3.145028,1.37046 -0.218374,-0.0838 -0.692996,-0.82127 -1.054716,-1.63918 -0.377884,-0.85447 -0.794588,-1.44186 -0.979268,-1.38026 -0.17677,0.0589 -0.71835,1.64736 -1.203544,3.52949 -2.184505,8.47387 -2.198144,11.7939 -0.07235,17.44493 0.570864,1.5175 0.590093,1.82069 0.434599,6.87916 -0.13775,4.48133 -0.287064,5.87917 -0.973068,9.12813 -1.240317,5.87424 -1.28822,8.0807 -0.271301,12.43541 0.458755,1.96453 0.946188,4.52438 1.083138,5.68855 0.17375,1.47696 0.385533,2.2166 0.700733,2.44739 0.333274,0.24404 2.211814,0.33073 7.165454,0.33073 4.142946,0 6.910638,0.10507 7.227982,0.27492 0.985544,0.52745 1.155686,-0.64029 1.247986,-8.55762 0.06825,-5.85635 0.158137,-7.3839 0.441317,-7.49256 0.602124,-0.23106 3.013336,0.97561 3.84731,1.92546 1.325924,1.51015 1.924296,2.96751 2.057756,5.01055 l 0.122473,1.87637 1.88619,-0.11834 c 1.630508,-0.10246 1.982239,-0.0424 2.594673,0.44287 0.836784,0.66303 1.172647,1.63016 1.409217,4.06073 0.09942,1.0215 0.343136,1.9575 0.56844,2.18281 0.56549,0.56553 15.599109,0.58952 16.369549,0.0264 0.47786,-0.34942 0.48694,-0.51758 0.1788,-3.28869 -0.64834,-5.83068 -2.22924,-10.28422 -5.24258,-14.76654 l -1.48673,-2.21175 1.59836,-1.70842 c 1.75412,-1.87522 3.28217,-4.66863 4.0168,-7.34271 l 0.45786,-1.66656 -0.007,2.51354 c -0.006,2.35644 0.0472,2.60844 0.85628,4.03438 1.25525,2.21232 1.30954,3.65412 0.3266,8.66562 -0.44241,2.25557 -0.88554,4.8339 -0.98444,5.72988 -0.17108,1.54964 -0.13379,1.70441 0.76636,3.175 0.52045,0.85027 1.20271,2.49867 1.51619,3.66284 0.31348,1.16417 0.69063,2.26549 0.83767,2.44739 0.18996,0.23503 1.29961,0.33073 3.83491,0.33073 h 3.56774 l 1.80041,0.98444 1.80041,0.98443 1.51618,-0.62838 c 1.85487,-0.7688 2.3673,-0.5663 2.3673,0.93639 0,1.3805 0.49557,1.42903 2.59622,0.25425 0.9282,-0.51909 1.87922,-0.94361 2.11305,-0.94361 0.90658,0 1.75846,0.6375 2.14561,1.60508 0.22093,0.55215 0.61445,1.12721 0.87436,1.27848 h 5.2e-4 c 0.65148,0.37915 0.67672,0.37379 1.68982,-0.35967 3.18894,-2.30875 8.41307,-5.69888 8.78138,-5.69888 0.55394,0 1.06724,1.02797 1.48621,2.97656 0.17991,0.83675 0.42803,1.52136 0.55139,1.52136 0.66841,0 9.22781,-15.17437 10.41332,-18.4609 1.19223,-3.30526 1.77952,-6.72457 1.94355,-11.31921 0.30404,-8.51594 -0.87774,-12.86982 -3.91398,-14.41874 -0.60641,-0.30936 -1.17396,-0.84167 -1.33687,-1.25419 -0.25351,-0.64196 -0.30225,-0.66458 -0.46922,-0.21498 -0.12622,0.33986 -0.33414,-0.24879 -0.64337,-1.82262 -0.67095,-3.41481 -1.83538,-6.21939 -3.22358,-7.76335 -1.86303,-2.07218 -7.4435,-4.64046 -10.04383,-4.62246 -0.58209,0.004 -2.24895,0.3788 -3.70416,0.83302 -2.67844,0.83602 -7.37891,1.52839 -8.48786,1.25006 -0.33263,-0.0835 -0.67642,-0.37724 -0.76377,-0.65268 -0.10079,-0.31753 -0.51407,-0.56716 -1.12965,-0.68264 -0.53396,-0.10017 -1.41859,-0.41048 -1.96526,-0.68937 -0.88386,-0.45088 -1.59445,-0.50694 -6.41873,-0.50694 -4.9123,0 -5.44894,0.0441 -5.6751,0.46664 -0.13737,0.25669 -0.30369,4.03693 -0.36949,8.40052 l -0.11937,7.93388 -1.03301,4.09122 -1.03301,4.09174 -0.003,-4.22403 c -0.003,-5.03049 -0.0883,-5.26094 -2.70268,-7.34735 -2.38358,-1.90231 -2.44215,-1.98949 -2.73265,-4.06797 -0.44813,-3.20633 -1.28905,-5.15588 -2.979662,-6.90656 -1.487948,-1.54083 -3.544242,-2.18189 -7.591268,-2.36678 -2.834912,-0.129351 -3.136969,-0.0953 -4.233333,0.47956 -1.672938,0.87714 -4.6186,0.9 -5.776908,0.0444 -0.76403,-0.56422 -1.049658,-0.59531 -5.455998,-0.59531 z m 51.204106,13.35991 c 0.58734,-0.0994 1.80773,-0.097 2.71198,0.008 7.75061,0.8891 11.62823,5.95969 11.62823,15.20682 0,3.42305 -0.49356,6.17181 -1.50326,8.37727 -0.75286,1.64448 -5.96804,8.81454 -7.11223,9.77821 -0.98047,0.8258 -1.89889,0.81246 -2.45567,-0.0372 -0.31152,-0.47543 -0.58549,-0.62139 -0.94929,-0.50592 -0.3815,0.12108 -0.87624,-0.20289 -1.94924,-1.27589 l -1.43815,-1.43815 V 128.56172 113.5957 Z m -41.054855,1.35133 c 1.173824,-0.14117 2.21151,0.26798 3.184819,1.21958 1.383718,1.35285 1.727845,2.23433 1.736845,4.44209 0.01055,2.67809 -0.513276,4.35748 -1.74253,5.58675 -1.223974,1.22396 -2.350226,1.55346 -5.316988,1.55546 -1.678648,0.001 -2.670275,0.14539 -3.647839,0.5307 -1.677084,0.66104 -2.550068,0.66596 -3.607532,0.0212 -1.256864,-0.7664 -1.79416,-2.43337 -1.616956,-5.01882 0.18552,-2.70663 0.456049,-3.20445 1.742013,-3.20445 1.148404,0 2.567198,-0.82077 5.267896,-3.04839 1.516723,-1.25108 2.826448,-1.94293 4.000272,-2.08412 z m 21.011125,11.05359 c 0.0278,-0.0278 0.0642,0.009 0.10645,0.11473 0.0764,0.191 0.0672,0.41903 -0.0207,0.50694 -0.088,0.0879 -0.15051,-0.0684 -0.13901,-0.34727 0.006,-0.15412 0.0254,-0.24659 0.0532,-0.27441 z m 23.79131,43.15912 -0.003,0.20153 c 0.0257,0.0122 0.0518,0.024 0.0775,0.0362 z M 61.787011,184.7079 c -0.122094,-0.16819 -0.362732,0.35306 -0.664042,1.21956 0.263184,-0.0616 0.526964,-0.1207 0.790132,-0.18242 -0.003,-0.57674 -0.04448,-0.92472 -0.12609,-1.03714 z m 59.830459,33.48994 c -4.98357,-0.0967 -9.97332,0.65309 -14.65441,2.29185 -10.879238,3.80876 -19.60477,11.52895 -24.61503,21.77852 -5.09076,10.41425 -5.817494,21.58624 -2.127002,32.7055 5.270634,15.88016 19.363946,27.13914 36.384342,29.06696 4.44885,0.5039 11.00583,-0.0538 15.73651,-1.33842 13.99646,-3.80091 25.59627,-15.05762 29.74185,-28.86129 5.48568,-18.2655 -1.30522,-37.48884 -17.06097,-48.29628 -6.81128,-4.67204 -15.0994,-7.18561 -23.40529,-7.34684 z m -90.686457,4.56923 c -0.461743,0.29511 -0.922943,0.59061 -1.379244,0.89556 0.01079,0.0475 0.01255,0.0939 0.02377,0.14211 0.447162,-0.35217 0.902475,-0.69336 1.355473,-1.03767 z m 90.042047,0.44907 c 2.67198,2.2e-4 5.34443,0.16323 6.9758,0.48886 15.70888,3.13551 27.56307,15.08361 30.49272,30.73404 0.67861,3.6252 0.67861,9.86861 0,13.49375 -1.4736,7.8722 -4.95108,14.47033 -10.60297,20.11919 -5.45289,5.44984 -11.70791,8.86622 -19.14199,10.45362 v 5.2e-4 c -2.4984,0.5335 -9.84855,0.91596 -11.82667,0.61547 -10.09747,-1.53387 -17.216765,-5.1163 -23.682789,-11.91711 -4.78682,-5.03461 -7.943594,-11.09851 -9.566858,-18.37717 -0.519204,-2.32832 -0.612365,-3.49139 -0.612365,-7.64087 0,-4.14943 0.09312,-5.31308 0.612365,-7.64139 0.75553,-3.38778 1.892761,-6.65214 3.274219,-9.40047 5.31726,-10.57822 15.259418,-18.07559 27.105838,-20.4406 1.62948,-0.32552 4.30072,-0.48805 6.9727,-0.48784 z m -0.0145,2.79621 c -2.11475,0.002 -4.24552,0.13692 -5.82807,0.40256 -14.7657,2.47856 -26.391238,14.1203 -28.982206,29.02304 -0.641174,3.68787 -0.387562,10.53236 0.521932,14.08234 1.717194,6.70276 5.063486,12.48869 9.889836,17.09973 5.070898,4.84477 11.714568,8.21319 18.419548,9.33949 v 5.2e-4 c 2.9741,0.49926 8.74939,0.50304 11.8122,0.006 8.43582,-1.36705 16.64615,-6.23554 21.78265,-12.91703 3.63241,-4.72501 5.27905,-8.12566 6.73809,-13.91389 0.64182,-2.54615 0.70331,-3.23998 0.70331,-7.94887 0,-4.72672 -0.0601,-5.39692 -0.71365,-7.99124 -0.93791,-3.72324 -2.00061,-6.4282 -3.66954,-9.33948 -5.4026,-9.42425 -14.23601,-15.60558 -24.94163,-17.4532 -1.51883,-0.26213 -3.61772,-0.39203 -5.73247,-0.38964 z m 2.39004,5.85598 c 1.05473,0.014 2.09059,0.18735 2.88354,0.51676 0.86106,0.3577 0.81523,0.36837 -1.19062,0.28887 l -2.08618,-0.0827 1.43402,0.86972 c 0.78882,0.47819 1.74773,1.16737 2.13114,1.53117 0.38342,0.3638 0.50642,0.51546 0.27285,0.33745 -0.83481,-0.63644 -2.74085,-1.13152 -4.33462,-1.12552 -2.62047,0.009 -4.20904,1.00709 -5.46892,3.4339 -0.18887,0.36381 -0.42146,1.37584 -0.51676,2.24896 l -0.17363,1.5875 -0.47336,-1.05782 c -0.55688,-1.24404 -0.45379,-3.53397 0.21704,-4.83123 0.61606,-1.19131 2.53612,-2.6532 4.30723,-3.27887 0.86992,-0.3073 1.94354,-0.45223 2.99827,-0.43821 z m 8.47028,0.59996 c 0,-0.21452 3.03203,1.21904 4.82451,2.281 3.95649,2.34397 7.6361,5.8931 10.17044,9.81077 1.21866,1.88387 2.79137,5.01281 2.6107,5.19348 -0.0584,0.0584 -0.94143,-0.084 -1.96268,-0.31626 -3.24944,-0.73908 -6.22438,-0.37263 -6.06422,0.74724 0.0605,0.42319 0.35207,0.59934 1.26917,0.76533 2.64592,0.47887 2.77405,0.59415 0.65422,0.59015 -2.54746,-0.005 -4.24185,0.52929 -6.07818,1.91512 -0.72761,0.54913 -1.70979,1.5733 -2.1823,2.27635 -0.47252,0.70306 -1.09077,2.00948 -1.37407,2.90318 -0.48575,1.53247 -0.51849,1.57255 -0.57619,0.69919 -0.1958,-2.96411 0.62194,-5.14854 2.65823,-7.10085 2.07232,-1.98694 5.66768,-3.50166 9.01496,-3.7977 1.45462,-0.12867 1.37879,-1.01319 -0.3018,-3.52589 -1.78842,-2.67401 -4.5906,-5.43565 -7.6202,-7.51065 -1.40801,-0.96437 -2.9553,-2.30703 -3.72536,-3.23236 -0.72447,-0.87054 -1.31723,-1.63469 -1.31723,-1.6981 z m -22.302,0.24185 c 0.0495,0.0495 -0.0918,0.78649 -0.31367,1.63814 -0.63785,2.44884 -0.53225,4.51585 0.31781,6.21409 0.39672,0.79255 0.74328,1.26266 0.76998,1.04438 0.42427,-3.46453 1.23505,-6.19969 0.96945,-3.2706 -0.4033,4.4477 2.53665,8.69199 7.06468,10.19938 l 1.45521,0.48472 -1.98437,-0.0744 c -2.47542,-0.0929 -4.10761,-0.83217 -5.95313,-2.69596 -1.77929,-1.79689 -2.72753,-3.66362 -3.31401,-6.52622 -0.53785,-2.62518 -0.82095,-3.14399 -1.71566,-3.14399 -1.71968,0 -7.124309,4.88358 -9.793714,8.84907 -1.068132,1.58677 -2.137456,2.79441 -3.244764,3.66541 -1.856128,1.46002 -1.867143,1.39716 -0.298689,-1.71101 2.968192,-5.88195 8.221387,-11.05866 14.061677,-13.85755 1.03911,-0.49798 1.9297,-0.86485 1.9792,-0.81545 z m 13.30048,3.73724 c 1.29541,0 1.73297,0.1307 2.68821,0.80201 4.30884,3.02836 3.62452,9.45519 -1.34203,12.60492 -0.64895,0.41155 -1.30542,0.74342 -1.45883,0.73742 -0.15341,-0.006 0.0786,-0.19773 0.51521,-0.42684 1.12758,-0.59191 2.71752,-2.14265 3.60547,-3.51659 0.64653,-1.00039 0.76016,-1.44438 0.76016,-2.96777 0,-1.1335 -0.16382,-2.13479 -0.44597,-2.72645 -0.50551,-1.06008 -0.76755,-1.16735 -1.00717,-0.41238 -0.0912,0.28743 -0.6283,1.2149 -1.19321,2.06086 -1.84921,2.76915 -4.66767,4.19076 -6.96392,3.51244 -1.48238,-0.4379 -2.72003,-1.41392 -3.6468,-2.87527 -1.04759,-1.65193 -0.97174,-1.99609 0.0941,-0.4253 1.14156,1.68285 1.8731,2.17309 3.76256,2.51974 1.97793,0.36288 3.26987,0.024 4.22145,-1.10691 0.7718,-0.91724 0.87435,-2.00875 0.29404,-3.13107 -0.43677,-0.84462 -0.91213,-1.10278 -1.66502,-0.90589 -0.2854,0.0746 -0.70967,-0.0601 -0.95136,-0.30179 -0.69383,-0.69383 -0.54009,-1.78755 0.37465,-2.66392 0.70841,-0.6787 1.00717,-0.77721 2.35851,-0.77721 z m -9.3555,0.25011 c 0.0381,-0.0229 0.0583,0.0252 0.0558,0.14676 -0.004,0.21828 -0.10311,0.69453 -0.21962,1.05834 -0.17031,0.53174 -0.21363,0.55769 -0.21963,0.13229 -0.004,-0.29104 0.0946,-0.76729 0.21963,-1.05833 0.0697,-0.1621 0.1257,-0.25612 0.16381,-0.27906 z m -0.3545,2.89286 c 0.0278,-0.0278 0.0642,0.009 0.10646,0.11472 0.0764,0.191 0.0672,0.41904 -0.0207,0.50693 -0.088,0.0879 -0.15051,-0.0683 -0.13901,-0.34726 0.006,-0.15411 0.0254,-0.24658 0.0532,-0.27439 z m 21.36046,0.66094 1.5198,1.19527 c 1.69468,1.33282 3.59457,3.2442 4.6545,4.68241 l 0.70073,0.95033 -1.61437,0.48885 c -0.88788,0.26883 -2.16754,0.82743 -2.84376,1.24127 -0.67618,0.41384 -0.96149,0.52108 -0.63407,0.23823 0.85297,-0.73686 0.73905,-1.47447 -0.42478,-2.75074 -0.99066,-1.08632 -1.02506,-1.18953 -1.18907,-3.58221 z m -27.61537,0.81442 c 0.1103,0.12289 0.19735,0.40184 0.32453,0.90692 0.15871,0.63051 0.63843,1.81167 1.06608,2.62465 l 0.77773,1.47794 -0.90847,-0.43305 -0.90796,-0.43356 -1.13068,1.10949 c -0.9768,0.95866 -1.29071,1.1114 -2.31097,1.125 -0.64934,0.009 -1.74584,0.10894 -2.43706,0.22272 -0.69122,0.1137 -1.25677,0.15754 -1.25677,0.0966 0,-0.65505 5.05989,-5.99472 6.31951,-6.66885 0.22032,-0.11791 0.35375,-0.1508 0.46406,-0.0279 z M 4.6132396,244.11152 c -0.013247,0.0116 -0.02654,0.0231 -0.039791,0.0346 -6.975e-4,0.0235 -0.00503,0.0487 -0.00568,0.0724 0.014984,-0.0357 0.03048,-0.0712 0.045475,-0.10697 z M 131.66595,248.9536 c 0.0837,-0.0423 0.15529,-0.0416 0.20929,0.0124 0.16774,0.16774 -0.0687,0.93366 -0.67541,2.18798 -0.85686,1.77144 -0.94765,1.87267 -1.10898,1.2299 -0.18678,-0.7442 0.98882,-3.134 1.5751,-3.43028 z m -22.57743,1.02164 v 5.2e-4 c 0.65366,-0.13073 1.13241,-0.004 2.06705,0.5457 0.66901,0.39357 1.63319,0.92504 2.14251,1.18133 l 0.92604,0.46612 -1.45521,-0.003 c -1.11801,-0.002 -1.7522,-0.17704 -2.73575,-0.75396 -1.82474,-1.07032 -1.93501,-1.23853 -0.94464,-1.43661 z m 32.983,3.36259 c 0.1819,-0.0734 0.47955,-0.0734 0.66145,0 0.1819,0.0734 0.0331,0.13332 -0.33072,0.13332 -0.36383,0 -0.51263,-0.0599 -0.33073,-0.13332 z m -45.41377,0.15968 c 0.28098,-0.15038 -0.03569,0.27289 -0.703316,0.94051 -1.525288,1.5253 -1.971389,2.58765 -1.969389,4.6886 0.0022,2.51168 0.404453,3.60852 1.832447,4.99401 1.254748,1.2174 2.113241,1.56321 3.879349,1.56321 1.110109,0 0.979449,0.62227 -0.218074,1.03973 -1.041814,0.36318 -1.132145,0.3564 -2.761589,-0.2067 -1.539748,-0.5321 -2.975243,-1.53642 -3.742407,-2.61845 -1.284594,-1.81176 -1.758395,-5.44239 -0.975651,-7.47499 0.3492,-0.90685 0.357175,-0.88218 0.393775,1.19062 l 0.03721,2.11667 0.875398,-1.85208 c 0.887764,-1.8784 2.421786,-3.88316 3.35225,-4.38113 z m 44.74146,0.0289 v 5.1e-4 c 0.18357,0.008 -0.24407,0.2401 -0.95654,0.51832 -2.43621,0.95136 -3.84477,2.94149 -3.85557,5.44824 -0.0108,2.50804 2.10453,4.46623 4.10982,3.80442 1.0394,-0.34303 1.54173,-1.2186 1.2852,-2.24069 -0.11849,-0.47209 0.004,-0.72663 0.50901,-1.0573 0.61303,-0.40214 0.72831,-0.40356 1.48983,-0.009 1.64956,0.85302 2.31226,3.04491 1.5043,4.97489 -0.43019,1.02754 -2.27783,2.74679 -3.50056,3.25768 v 0.001 c -0.94094,0.39315 -3.50188,0.46115 -4.60954,0.12299 -2.21045,-0.67481 -4.48731,-2.62034 -5.54746,-4.73976 -0.31642,-0.63257 -0.52322,-1.20174 -0.45992,-1.26504 0.0633,-0.0633 0.27493,0.27636 0.47025,0.75396 0.47385,1.1586 2.77855,3.5785 4.00338,4.20336 0.68758,0.35081 1.53931,0.50126 2.83135,0.50126 1.57022,0 1.95873,-0.0964 2.58744,-0.63717 0.73077,-0.62859 0.7336,-0.6422 0.23822,-1.18959 -0.27586,-0.30481 -0.66612,-0.55449 -0.86764,-0.55449 -1.1787,0 -3.33854,-1.74783 -4.15169,-3.36 -0.60818,-1.20585 -0.56126,-3.80618 0.092,-5.08651 0.77102,-1.51135 3.54549,-3.49183 4.82813,-3.44682 z m -39.08651,0.39015 c 2.42237,0.007 3.87055,0.53014 5.5547,2.00557 1.00559,0.88096 2.52026,2.99318 2.52026,3.51503 0,0.14552 -0.33718,-0.26468 -0.74931,-0.91157 -0.84273,-1.32293 -2.52427,-2.92425 -3.71967,-3.54242 -1.08479,-0.56101 -3.97163,-0.54194 -5.17952,0.0341 -0.51426,0.24523 -0.934655,0.51311 -0.934315,0.59531 3.5e-4,0.0822 0.636545,0.48167 1.413865,0.88781 1.69958,0.88794 3.46965,2.57997 4.20646,4.02094 1.14577,2.24079 0.47538,5.07989 -1.57613,6.67556 -1.60766,1.25044 -1.89881,1.31032 -0.56379,0.11627 2.63961,-2.36089 2.76196,-6.22998 0.25012,-7.90804 -1.11101,-0.74221 -1.87016,-0.75927 -2.75487,-0.0636 -0.50453,0.39686 -0.70336,0.82715 -0.76326,1.65157 -0.06593,0.90727 -0.212477,1.17752 -0.787037,1.4516 -0.932874,0.44502 -1.74488,0.0713 -2.564184,-1.18029 -0.51281,-0.78276 -0.604013,-1.20585 -0.509013,-2.3518 0.14612,-1.76199 0.971465,-3.02287 2.716113,-4.15065 1.208791,-0.78138 1.493781,-0.85143 3.439581,-0.84543 z m 19.50889,0.58808 c 0.41132,0.0346 0.77287,0.17654 1.39268,0.45165 2.6563,1.17905 3.92946,2.8914 4.26175,5.73092 0.29103,2.48696 -0.91752,4.8646 -3.1321,6.16241 -1.67402,0.98104 -4.40659,1.17072 -6.01876,0.41755 -2.26854,-1.05981 -3.28747,-2.43054 -3.8747,-5.21312 -0.3201,-1.51679 -0.30501,-1.74385 0.19482,-2.9099 1.1634,-2.71412 2.64233,-3.91309 5.48494,-4.44727 0.81901,-0.15391 1.28005,-0.22689 1.69137,-0.19224 z m 21.25503,1.13327 c 1.66571,-0.14679 3.59846,0.57797 5.00848,1.98799 1.58017,1.58016 2.12209,3.03492 2.11409,5.67665 -0.004,1.25753 -0.14549,2.48224 -0.32195,2.77813 -0.28281,0.4742 -0.31649,0.4261 -0.32349,-0.46302 -0.0112,-1.37489 -0.72494,-1.31753 -1.65365,0.13281 -0.39586,0.61821 -1.03429,1.48115 -1.41852,1.91771 l -0.69866,0.79375 0.70435,-0.99219 c 1.06139,-1.49543 1.47123,-2.67706 1.47123,-4.24315 0,-2.20329 -0.63508,-3.95233 -1.8247,-5.02708 -1.18814,-1.07341 -1.53593,-1.20804 -3.78943,-1.47071 l -1.66192,-0.19379 0.84646,-0.45269 c 0.46668,-0.24945 0.99248,-0.39549 1.54771,-0.44441 z m -21.61367,1.34462 c -0.38967,-0.051 -0.79317,-0.0461 -1.20147,0.0238 -0.46664,0.0798 -0.93965,0.24426 -1.40612,0.50643 -1.44759,0.8136 -2.20862,2.3079 -2.06395,4.05246 0.13465,1.62366 0.8606,2.79288 2.12028,3.41375 2.01756,0.99441 4.66576,0.21959 5.73195,-1.67742 1.6058,-2.85713 -0.45269,-5.96186 -3.18069,-6.31899 z m -12.65555,5.65857 -0.094,1.98437 c -0.0636,1.34205 -0.27172,2.32695 -0.64286,3.04271 -1.73271,3.34155 -6.20961,5.88909 -11.044287,6.28489 -0.672404,0.055 -0.805798,0.18719 -0.872298,0.86558 -0.17794,1.8151 4.764175,7.45658 8.997385,10.27017 1.58124,1.05096 2.72479,2.06645 3.64267,3.23443 0.73579,0.93629 1.28725,1.70222 1.22525,1.70222 -0.062,0 -1.28768,-0.58818 -2.72335,-1.3069 -5.99051,-2.99892 -10.623228,-7.56236 -13.6741,-13.46946 -0.699744,-1.35485 -1.219468,-2.51622 -1.154968,-2.58072 0.06451,-0.0645 0.878658,0.0623 1.809192,0.28164 2.583762,0.60905 4.275598,0.52349 6.132956,-0.31006 l 1.5968,-0.71675 -2.253088,-0.32505 c -1.239194,-0.1789 -2.657189,-0.51315 -3.151229,-0.74259 -0.494024,-0.2294 -0.660004,-0.34631 -0.36897,-0.25941 4.557717,1.3605 9.976617,-1.62015 12.024587,-6.61407 z m 2.88613,6.87916 c 0.005,0.14552 -0.40128,1.27667 -0.90228,2.51354 -0.68626,1.69447 -0.90998,2.05326 -0.90898,1.45521 0.002,-0.70585 1.78936,-4.62334 1.81126,-3.96875 z m 15.23059,0.45476 1.84071,0.14417 c 1.4742,0.11529 2.1597,0.33075 3.43959,1.08211 1.49753,0.87914 1.55711,0.94992 0.93741,1.12344 -1.12651,0.31543 -1.43253,0.26003 -2.4753,-0.44855 -0.55566,-0.37758 -1.62516,-0.95988 -2.3766,-1.29398 z m -4.7625,1.5198 -1.05833,0.35812 c -2.68131,0.9075 -4.52323,2.40187 -5.32474,4.32015 -0.43255,1.03531 -0.48177,3.16477 -0.0791,3.41374 0.15661,0.0968 0.75497,-0.20171 1.32964,-0.66352 4.31401,-3.46688 9.84025,-2.23493 11.1156,2.47788 0.37802,1.39689 0.17107,4.30292 -0.37879,5.31906 -0.2356,0.4354 -0.67536,1.08934 -0.9772,1.45314 -0.37167,0.44795 -0.27444,0.12492 0.30127,-1.00097 1.12342,-2.19714 1.26573,-3.91148 0.49454,-5.96088 -0.93679,-2.48961 -3.60856,-4.05089 -5.80584,-3.39256 -1.93534,0.57984 -2.85438,2.88402 -1.572,3.94085 1.5354,1.2653 1.62382,1.60906 0.66146,2.57142 -1.93418,1.93413 -5.47056,0.37117 -6.51278,-2.87838 -0.41417,-1.29139 -0.18224,-3.77673 0.49247,-5.27668 0.98369,-2.18665 3.77026,-4.23699 6.16707,-4.53771 z m 27.65671,0.50591 -0.67748,1.53789 c -2.79043,6.33389 -7.65037,11.53203 -13.88235,14.84819 -1.09141,0.58075 -2.24944,1.13473 -2.57349,1.23093 -0.58436,0.17355 -0.58599,0.16567 -0.19844,-0.93276 0.45793,-1.29786 0.47062,-4.05924 0.0274,-5.93555 l -0.31264,-1.32292 -0.48679,1.71979 c -0.55557,1.96357 -1.43101,3.80547 -2.26498,4.76509 l -0.57258,0.65887 0.41858,-0.69039 c 0.23023,-0.37969 0.57825,-1.45429 0.7736,-2.38797 0.83989,-4.01423 -0.82005,-8.09842 -4.25142,-10.45931 -1.68699,-1.16068 -1.41293,-1.41686 0.82114,-0.7674 1.77315,0.51549 4.00609,2.46435 5.18469,4.52427 0.44902,0.7848 1.0956,2.55343 1.43661,3.93051 0.341,1.37715 0.6987,2.63172 0.7953,2.78795 0.34048,0.5509 1.69166,0.27565 3.01428,-0.61444 3.08714,-2.07744 6.05188,-5.17381 8.34988,-8.71988 0.90953,-1.40352 1.67967,-2.18293 3.40238,-3.44371 z M 105.805,273.1433 c 0.0898,-0.0311 0.0578,0.0254 -0.11369,0.17518 -0.84977,0.74227 -0.74171,1.42437 0.44286,2.79311 0.82295,0.95084 1.07452,1.48995 1.21182,2.59623 0.0951,0.76778 0.13368,1.84538 0.0858,2.3952 l -0.0868,0.99994 -1.05833,-0.84543 c -1.6905,-1.35001 -3.54899,-3.16721 -4.67982,-4.57595 l -1.048,-1.30534 1.76372,-0.59377 c 0.97018,-0.32675 2.25899,-0.90713 2.86391,-1.28932 0.31676,-0.20014 0.52876,-0.31872 0.61857,-0.34985 z m 24.16183,0.478 c 0.0137,-0.0136 0.12091,0.0664 0.33073,0.231 0.25466,0.19972 0.46302,0.40812 0.46302,0.46302 0,0.21776 -0.21768,0.0774 -0.56327,-0.36329 -0.16455,-0.20982 -0.24414,-0.31707 -0.23048,-0.33073 z m 11.90625,0.99013 c 0,0.26539 -2.65817,3.42764 -3.74913,4.46019 -1.85492,1.75564 -3.1073,2.60289 -3.23029,2.18539 -0.4693,-1.593 -1.14846,-3.10304 -1.89342,-4.21007 -0.48456,-0.72007 -0.85264,-1.30897 -0.81804,-1.30897 0.0346,0 0.46653,0.29766 0.95963,0.66146 1.20874,0.89178 1.57021,0.84012 2.77812,-0.39688 0.93062,-0.95298 1.16634,-1.05981 2.36885,-1.07021 0.73445,-0.006 1.84134,-0.10928 2.4598,-0.22893 0.61847,-0.1196 1.12448,-0.16088 1.12448,-0.092 z M 9.7354075,275.3494 c -8.683e-4,0.003 -0.00171,0.006 -0.00258,0.008 0.029206,-0.003 0.00574,0.007 0.00258,-0.008 z m 102.3369025,4.17856 c 0.0328,0.0718 0.0841,0.47219 0.17467,1.24592 0.25023,2.13715 0.72503,3.30548 1.87585,4.61626 1.72443,1.96392 4.72369,2.75326 7.15874,1.8836 1.57994,-0.56426 3.07923,-1.91575 3.43235,-3.09438 0.40499,-1.35174 0.90929,-1.17938 0.81339,0.27802 -0.13624,2.06984 -1.83236,4.33433 -3.87574,5.17487 v 5.2e-4 c -2.65858,1.09362 -5.94367,0.48003 -8.48578,-1.5844 -0.48522,-0.39435 -0.45536,-0.39373 0.3607,0.002 0.48949,0.23762 1.35693,0.5969 1.92805,0.7984 l 1.03869,0.36638 -0.45062,-0.76274 c -0.24778,-0.41945 -1.08206,-1.55025 -1.85415,-2.51302 -1.54127,-1.92203 -2.23482,-3.73189 -2.17868,-5.68545 0.0156,-0.54089 0.0298,-0.79789 0.0625,-0.72605 z M 92.848164,342.6192 c 0.536435,1.23576 1.109486,2.34869 1.62574,2.96933 0.02971,0.0357 0.02817,0.0242 0.05478,0.0558 0.09113,-0.34986 0.179812,-0.7004 0.27957,-1.048 -0.06743,-0.32523 -0.07468,-0.5134 -0.168982,-0.86041 -0.02715,-0.0999 -0.03323,-0.19432 -0.05943,-0.29404 -0.425235,-0.1567 -0.777309,-0.28547 -1.458826,-0.5364 -0.0761,-0.1003 -0.189926,-0.18821 -0.272851,-0.28629 z m 37.178096,3.2861 c -0.0714,0.0101 -0.14194,0.0226 -0.21343,0.032 l 0.0212,0.57671 z m -18.8588,0.71262 c -0.25977,0.005 -0.51952,0.0116 -0.77928,0.0171 0.0506,0.13253 0.0796,0.32659 0.13229,0.45268 0.48113,1.15126 0.64042,0.6935 0.64699,-0.46974 z" />
    </g>
    <text
       xml:space="preserve"
       style="font-style:normal;font-variant:normal;font-weight:normal;font-stretch:normal;font-size:110.132px;line-height:0;font-family:'Franklin Gothic Heavy';-inkscape-font-specification:'Franklin Gothic Heavy, ';letter-spacing:7.86984px;fill:#000000;stroke:#000000;stroke-width:2.29442"
       x="193.65617"
       y="327.38464"
       id="text8"
       transform="scale(0.84590789,1.1821618)"><tspan
         id="tspan8"
         x="193.65617"
         y="327.38464"
         style="stroke-width:2.29442">experience</tspan></text>
  </g>
</svg>
