<?xml version="1.0" encoding="UTF-8" standalone="no"?>
<!-- Created with Inkscape (http://www.inkscape.org/) -->

<svg
   width="135.49759mm"
   height="50.14119mm"
   viewBox="0 0 135.49759 50.141189"
   version="1.1"
   id="svg1"
   xml:space="preserve"
   xmlns="http://www.w3.org/2000/svg"
   xmlns:svg="http://www.w3.org/2000/svg"><defs
     id="defs1"><clipPath
       clipPathUnits="userSpaceOnUse"
       id="clipPath2"><rect
         style="fill:none;stroke:#000000;stroke-width:0.264583"
         id="rect3"
         width="72.346146"
         height="64.349998"
         x="4.1884618"
         y="166.01538" /></clipPath><clipPath
       clipPathUnits="userSpaceOnUse"
       id="clipPath6"><rect
         style="fill:none;stroke:#000000;stroke-width:0.264583"
         id="rect7"
         width="83.769234"
         height="40.361538"
         x="102.42692"
         y="109.28075" /></clipPath></defs><g
     id="layer1"
     transform="translate(-19.153525,-176.44245)"
     style="fill:#ffffff"><g
       id="g8"
       style="fill:#ffffff"><path
         style="fill:#ffffff"
         d="m 28.14281,153.93279 c -3.13738,-0.75041 -6.16309,-3.22404 -7.65805,-6.26073 l -0.87586,-1.77913 v -16.8066 -16.80661 l 0.84895,-1.79224 c 1.50071,-3.16821 4.50724,-5.55074 7.92927,-6.28357 0.82852,-0.17743 7.82184,-0.24747 19.94309,-0.19976 l 18.66715,0.0735 1.99034,0.98383 c 3.27572,1.61919 5.546,4.37426 6.30014,7.64547 0.14712,0.63815 0.27041,3.15458 0.27396,5.59205 l 0.006,4.43178 h -1.82207 -1.82207 l -0.10546,-4.56407 c -0.0973,-4.21249 -0.15739,-4.67628 -0.77958,-6.02088 -0.83701,-1.80883 -2.07288,-3.06841 -3.79965,-3.87251 L 65.91051,107.6547 H 47.52197 29.13343 l -1.32292,0.61781 c -1.93117,0.90188 -2.91032,1.84058 -3.8211,3.66321 l -0.80911,1.61916 0.003,15.50201 0.003,15.50201 0.62858,1.34995 c 0.74079,1.59092 2.11701,3.04247 3.67276,3.87378 l 1.11745,0.5971 H 47.5228 66.44051 l 1.22048,-0.71749 c 1.50726,-0.88608 2.78807,-2.31587 3.49297,-3.89927 0.42267,-0.94943 0.56201,-1.95237 0.65889,-4.74244 l 0.12286,-3.53836 1.35344,0.16263 c 0.74439,0.0894 1.5618,0.16366 1.81646,0.16492 0.416,0.002 0.46237,0.33143 0.45655,3.24345 -0.004,1.78263 -0.12684,3.76328 -0.27396,4.40143 -0.76439,3.31567 -3.07961,6.12731 -6.31962,7.67466 l -1.99891,0.95464 -18.9177,0.043 c -10.40612,0.0236 -19.36363,-0.0637 -19.9088,-0.19408 z m 60.390045,-10.66041 c -6.018806,-1.3075 -10.051116,-7.24614 -9.044562,-13.3205 1.202718,-7.25817 8.689562,-11.60863 15.556285,-9.03946 1.727844,0.64647 4.20671,2.43685 5.222842,3.77223 0.86748,1.14004 0.89589,1.09657 -1.555391,2.37998 l -1.446207,0.75719 -1.073778,-1.07378 c -2.437398,-2.43739 -5.72466,-3.00611 -8.467869,-1.465 -4.36586,2.45271 -5.210268,8.34447 -1.699145,11.85559 1.441882,1.44189 2.812236,1.98357 5.035563,1.99049 2.213283,0.007 4.097771,-0.7893 5.412592,-2.28679 l 0.820153,-0.93411 0.977571,0.69406 c 0.537663,0.38172 1.321276,0.97636 1.741361,1.32141 l 0.76379,0.62737 -1.269002,1.35667 c -1.520219,1.62523 -4.318415,3.09201 -6.608578,3.46411 -1.945375,0.31609 -2.512149,0.30318 -4.365625,-0.0995 z m 24.955455,0.0698 c -4.1742,-0.69688 -7.76278,-3.81343 -9.06914,-7.87622 -0.50134,-1.55917 -0.58557,-2.29966 -0.49558,-4.35715 0.0945,-2.16066 0.22371,-2.71296 1.00684,-4.30391 1.66664,-3.38579 4.51578,-5.56835 8.3076,-6.36396 7.75676,-1.62754 14.87197,5.0647 13.70981,12.89481 -0.76591,5.16042 -4.69737,9.21356 -9.73758,10.03896 -1.74746,0.28617 -1.81658,0.28557 -3.72195,-0.0325 z m 4.56288,-4.70741 c 5.74294,-2.60843 6.07046,-10.54869 0.55155,-13.37117 -5.74422,-2.9377 -11.9606,2.86588 -9.8149,9.16315 1.26281,3.70616 5.81522,5.77416 9.26335,4.20802 z m 21.36629,4.70741 c -2.99848,-0.50059 -6.1816,-2.54508 -7.73748,-4.96972 -3.16463,-4.93165 -2.19003,-11.92961 2.15181,-15.45082 4.00311,-3.24649 9.39623,-3.62281 13.76927,-0.96079 l 1.25677,0.76503 v -5.28922 -5.28922 h 2.12738 2.12737 l -0.0768,11.31094 -0.0769,11.31094 -0.84705,1.78819 c -1.66851,3.52236 -5.18806,6.20432 -8.94253,6.81434 -1.77978,0.28918 -1.84503,0.28867 -3.75184,-0.0297 z m 4.83166,-4.83842 c 1.54291,-0.71845 3.03266,-2.14471 3.71289,-3.55467 0.60747,-1.25917 0.78536,-3.97598 0.35984,-5.49579 -0.45448,-1.62323 -2.25803,-3.57851 -4.02029,-4.35851 -3.43182,-1.51897 -7.14971,-0.23345 -9.14603,3.16238 -0.63788,1.08507 -0.71749,1.48686 -0.71749,3.62135 0,2.20734 0.064,2.50384 0.79375,3.6784 2.01947,3.25034 5.74846,4.46896 9.01733,2.94684 z m 21.54204,4.75709 c -5.69256,-1.28178 -9.26041,-5.72569 -9.26041,-11.53424 0,-2.22351 0.66481,-4.8443 1.57576,-6.21194 2.57682,-3.86864 7.2923,-5.96769 11.70603,-5.21082 5.76709,0.98895 9.73696,5.72273 9.73696,11.61064 v 1.6642 h -9.12813 c -10.34727,0 -9.82862,-0.13205 -8.36994,2.13101 1.60887,2.49608 3.32953,3.48381 6.12327,3.51503 2.00605,0.0224 3.75348,-0.6882 5.16616,-2.10088 l 0.87781,-0.87781 1.77535,1.29429 1.77535,1.2943 -1.36014,1.32481 c -1.63837,1.59582 -4.09644,2.85807 -6.25244,3.2107 -1.95573,0.31988 -2.52263,0.30569 -4.36563,-0.10929 z m 8.73125,-14.15017 c 0,-0.8672 -1.67131,-3.02736 -2.95194,-3.81536 -1.43686,-0.88414 -3.72407,-1.19824 -5.4078,-0.74267 -2.0097,0.54378 -4.17543,2.58712 -4.72924,4.46198 l -0.17584,0.59531 h 6.63241 c 6.32362,0 6.63241,-0.0232 6.63241,-0.49926 z m -141.1552,13.6244 c -1.0707,-0.48248 -1.94262,-1.4737 -2.25527,-2.56385 -0.1509,-0.52614 -0.25827,-5.87862 -0.25827,-12.87466 v -11.97414 h 2.24621 2.2462 l 0.0689,11.70781 0.0689,11.70782 1.80174,0.0786 1.80174,0.0786 -0.0943,2.03807 -0.0943,2.03807 -2.36893,0.0607 c -1.54421,0.0396 -2.64528,-0.0638 -3.16269,-0.29699 z m 9.39271,-9.1564 v -9.525 h 2.24896 2.24896 v 9.525 9.525 H 45.0089 42.75994 Z m 14.0212,9.27779 c -1.81461,-0.55198 -3.20878,-1.71747 -4.13527,-3.45696 -0.45256,-0.8497 -0.49963,-1.77117 -0.57101,-11.17864 l -0.0778,-10.2526 h 2.27973 2.27973 l -0.0853,3.23666 -0.0853,3.23667 3.77031,-0.0879 3.77032,-0.0879 v 2.14294 2.14293 h -3.70417 -3.70417 v 4.38598 4.38597 l 0.7734,0.7734 c 0.76573,0.76573 0.80375,0.7734 3.83646,0.7734 h 3.06306 v 2.11666 2.11667 l -3.37344,-0.0227 c -1.85539,-0.0125 -3.67186,-0.11352 -4.03661,-0.22447 z m -14.0212,-25.28508 v -2.24896 h 2.24896 2.24896 v 2.24896 2.24896 H 45.0089 42.75994 Z"
         id="path2"
         clip-path="url(#clipPath6)"
         transform="translate(-24.898398,71.494866)" /><path
         style="fill:#ffffff"
         d="m 27.687436,226.38568 c -3.13738,-0.75041 -6.16309,-3.22404 -7.658051,-6.26073 l -0.87586,-1.77913 v -16.8066 -16.80661 l 0.84895,-1.79224 c 1.500711,-3.16821 4.507241,-5.55074 7.929271,-6.28357 0.82852,-0.17743 7.82184,-0.24747 19.94309,-0.19976 l 18.66715,0.0735 1.99034,0.98383 c 3.275717,1.61919 5.545997,4.37426 6.300137,7.64547 0.14712,0.63815 0.27041,3.15458 0.27396,5.59205 l 0.006,4.43178 h -1.82207 -1.82207 l -0.10546,-4.56407 c -0.0973,-4.21249 -0.15739,-4.67628 -0.77958,-6.02088 -0.83701,-1.80883 -2.072877,-3.06841 -3.799647,-3.87251 l -1.32846,-0.61862 h -18.38854 -18.38854 l -1.32292,0.61781 c -1.93117,0.90188 -2.91032,1.84058 -3.8211,3.66321 l -0.80911,1.61916 0.003,15.50201 0.003,15.50201 0.62858,1.34995 c 0.74079,1.59092 2.11701,3.04247 3.67276,3.87378 l 1.11745,0.5971 h 18.91771 18.91771 l 1.22048,-0.71749 c 1.50726,-0.88608 2.788067,-2.31587 3.492967,-3.89927 0.42267,-0.94943 0.56201,-1.95237 0.65889,-4.74244 l 0.12286,-3.53836 1.35344,0.16263 c 0.74439,0.0894 1.5618,0.16366 1.81646,0.16492 0.416,0.002 0.46237,0.33143 0.45655,3.24345 -0.004,1.78263 -0.12684,3.76328 -0.27396,4.40143 -0.76439,3.31567 -3.07961,6.12731 -6.319617,7.67466 l -1.99891,0.95464 -18.9177,0.043 c -10.40612,0.0236 -19.36363,-0.0637 -19.9088,-0.19408 z m 60.390047,-10.66041 c -6.01881,-1.3075 -10.05112,-7.24614 -9.04456,-13.3205 1.20271,-7.25817 8.68956,-11.60863 15.55628,-9.03946 1.72784,0.64647 4.20671,2.43685 5.22284,3.77223 0.867487,1.14004 0.895897,1.09657 -1.55539,2.37998 l -1.44621,0.75719 -1.07377,-1.07378 c -2.4374,-2.43739 -5.72466,-3.00611 -8.46787,-1.465 -4.36586,2.45271 -5.21027,8.34447 -1.69915,11.85559 1.44188,1.44189 2.81224,1.98357 5.03557,1.99049 2.21328,0.007 4.09777,-0.7893 5.41259,-2.28679 l 0.82015,-0.93411 0.97757,0.69406 c 0.53766,0.38172 1.32128,0.97636 1.74136,1.32141 l 0.763787,0.62737 -1.268997,1.35667 c -1.52022,1.62523 -4.31841,3.09201 -6.60858,3.46411 -1.94537,0.31609 -2.51215,0.30318 -4.36562,-0.0995 z m 24.955447,0.0698 c -4.1742,-0.69688 -7.76278,-3.81343 -9.06914,-7.87622 -0.50133,-1.55917 -0.58556,-2.29966 -0.49557,-4.35715 0.0945,-2.16066 0.22371,-2.71296 1.00683,-4.30391 1.66664,-3.38579 4.51578,-5.56835 8.3076,-6.36396 7.75676,-1.62754 14.87197,5.0647 13.70981,12.89481 -0.76591,5.16042 -4.69737,9.21356 -9.73758,10.03896 -1.74746,0.28617 -1.81658,0.28557 -3.72195,-0.0325 z m 4.56288,-4.70741 c 5.74294,-2.60843 6.07046,-10.54869 0.55155,-13.37117 -5.74422,-2.9377 -11.9606,2.86588 -9.8149,9.16315 1.26281,3.70616 5.81522,5.77416 9.26335,4.20802 z m 21.36629,4.70741 c -2.99848,-0.50059 -6.1816,-2.54508 -7.73748,-4.96972 -3.16463,-4.93165 -2.19003,-11.92961 2.15181,-15.45082 4.00311,-3.24649 9.39623,-3.62281 13.76927,-0.96079 l 1.25677,0.76503 v -5.28922 -5.28922 h 2.12738 2.12737 l -0.0768,11.31094 -0.0769,11.31094 -0.84705,1.78819 c -1.66851,3.52236 -5.18806,6.20432 -8.94253,6.81434 -1.77978,0.28918 -1.84503,0.28867 -3.75184,-0.0297 z m 4.83166,-4.83842 c 1.54291,-0.71845 3.03266,-2.14471 3.71289,-3.55467 0.60747,-1.25917 0.78536,-3.97598 0.35984,-5.49579 -0.45448,-1.62323 -2.25803,-3.57851 -4.02029,-4.35851 -3.43182,-1.51897 -7.14971,-0.23345 -9.14603,3.16238 -0.63788,1.08507 -0.71749,1.48686 -0.71749,3.62135 0,2.20734 0.064,2.50384 0.79375,3.6784 2.01947,3.25034 5.74846,4.46896 9.01733,2.94684 z m 21.54204,4.75709 c -5.69256,-1.28178 -9.26041,-5.72569 -9.26041,-11.53424 0,-2.22351 0.66481,-4.8443 1.57576,-6.21194 2.57682,-3.86864 7.2923,-5.96769 11.70603,-5.21082 5.76709,0.98895 9.73696,5.72273 9.73696,11.61064 v 1.6642 h -9.12813 c -10.34727,0 -9.82862,-0.13205 -8.36994,2.13101 1.60887,2.49608 3.32953,3.48381 6.12327,3.51503 2.00605,0.0224 3.75348,-0.6882 5.16616,-2.10088 l 0.87781,-0.87781 1.77535,1.29429 1.77535,1.2943 -1.36014,1.32481 c -1.63837,1.59582 -4.09644,2.85807 -6.25244,3.2107 -1.95573,0.31988 -2.52263,0.30569 -4.36563,-0.10929 z m 8.73125,-14.15017 c 0,-0.8672 -1.67131,-3.02736 -2.95194,-3.81536 -1.43686,-0.88414 -3.72407,-1.19824 -5.4078,-0.74267 -2.0097,0.54378 -4.17543,2.58712 -4.72924,4.46198 l -0.17584,0.59531 h 6.63241 c 6.32362,0 6.63241,-0.0232 6.63241,-0.49926 z m -141.155194,13.6244 c -1.0707,-0.48248 -1.94262,-1.4737 -2.25527,-2.56385 -0.1509,-0.52614 -0.25827,-5.87862 -0.25827,-12.87466 v -11.97414 h 2.24621 2.2462 l 0.0689,11.70781 0.0689,11.70782 1.80174,0.0786 1.80174,0.0786 -0.0943,2.03807 -0.0943,2.03807 -2.36893,0.0607 c -1.54421,0.0396 -2.64528,-0.0638 -3.16269,-0.29699 z m 9.39271,-9.1564 v -9.525 h 2.24896 2.24896 v 9.525 9.525 h -2.24896 -2.24896 z m 14.0212,9.27779 c -1.81461,-0.55198 -3.20878,-1.71747 -4.13527,-3.45696 -0.45256,-0.8497 -0.49963,-1.77117 -0.57101,-11.17864 l -0.0778,-10.2526 h 2.27973 2.27973 l -0.0853,3.23666 -0.0853,3.23667 3.77031,-0.0879 3.77032,-0.0879 v 2.14294 2.14293 h -3.70417 -3.70417 v 4.38598 4.38597 l 0.7734,0.7734 c 0.76573,0.76573 0.80375,0.7734 3.83646,0.7734 h 3.06306 v 2.11666 2.11667 l -3.37344,-0.0227 c -1.85539,-0.0125 -3.67186,-0.11352 -4.03661,-0.22447 z m -14.0212,-25.28508 v -2.24896 h 2.24896 2.24896 v 2.24896 2.24896 h -2.24896 -2.24896 z"
         id="path2-4"
         clip-path="url(#clipPath2)" /></g></g></svg>
