<?xml version="1.0" encoding="UTF-8" standalone="no"?>
<!-- Created with Inkscape (http://www.inkscape.org/) -->

<svg
   width="242.48859mm"
   height="73.633942mm"
   viewBox="0 0 916.49231 278.30152"
   version="1.1"
   id="svg1"
   xml:space="preserve"
   xmlns="http://www.w3.org/2000/svg"
   xmlns:svg="http://www.w3.org/2000/svg"><defs
     id="defs1" /><g
     id="layer1"
     transform="translate(-82.013617,-257.69922)"><path
       id="path1"
       style="fill:#000000;stroke-width:1.48042"
       d="m 442.61915,257.69922 c -35.08057,0 -72.36569,16.19448 -120.22656,52.2168 -25.94617,19.52825 -41.60241,39.62052 -49.28711,63.25586 -7.99243,24.58143 3.35649,56.25586 20.15625,56.25586 14.7761,0 30.94374,-16.35537 44.34375,-44.86328 3.3993,-7.23206 6.00602,-11.22787 6.46484,-9.90625 0.42288,1.21806 1.4772,11.20937 2.34375,22.20117 3.02631,38.38834 6.4643,57.28515 12.65625,69.58008 4.50701,8.94927 14.61581,18.82767 23.64844,23.10938 4.071,1.92982 8.59012,3.51644 10.04101,3.52344 4.84153,0.0266 12.10755,-4.02259 17.72266,-9.875 17.96655,-18.72582 16.24158,-58.86457 -4.62109,-107.49805 -8.79343,-20.49866 -12.54979,-31.63176 -11.54883,-34.24024 0.45718,-1.19139 10.21218,-4.23069 24.19531,-7.53711 12.88528,-3.04664 27.91334,-7.19346 33.39649,-9.21484 24.64414,-9.08504 35.48428,-29.71463 25.70703,-48.92188 -6.83852,-13.43417 -15.83841,-18.08594 -34.99219,-18.08594 z m -290.96094,39.97462 c -25.10953,-0.01 -51.06292,52.10058 -65.988286,132.49414 -4.792435,25.81369 -4.889661,65.10889 -0.197266,79.94336 3.622905,11.45332 10.347767,20.72285 17.332032,23.88867 16.99712,7.70464 45.01507,-7.21488 72.00781,-38.3457 10.92438,-12.59911 15.97822,-20.96377 19.22071,-31.80664 0.47459,-1.58707 -0.67427,-13.29224 -1.95703,-25.28321 -0.20401,-1.35539 -0.41931,-2.70901 -0.62305,-4.06445 -0.17269,-1.12932 -0.24296,-2.27069 -0.42383,-3.39844 -0.34394,-1.20026 -0.54996,-2.43119 -0.82031,-3.64843 -0.35033,-1.17053 -0.67202,-2.34593 -0.91797,-3.54297 -0.19774,-0.89216 -0.22507,-1.80688 -0.33008,-2.71094 -0.0822,-0.92489 -0.23489,-1.83815 -0.38281,-2.75391 -0.12566,-0.9262 -0.31095,-1.8416 -0.42578,-2.76953 -0.1395,-0.52114 -0.23895,-1.05023 -0.35352,-1.57617 -0.134,-0.40592 -0.26065,-0.8154 -0.38476,-1.22461 -3.4739,-2.70989 -6.45652,-5.94153 -12.0625,-3.28125 -7.78555,3.69448 -18.15229,13.56938 -27.5586,26.25391 -4.73158,6.38064 -8.60351,10.93095 -8.60351,10.11132 0,-2.69049 10.33972,-37.48168 19.21093,-64.64453 16.71925,-51.19268 18.77394,-62.62682 13.03907,-72.53906 -4.04231,-6.98673 -11.36721,-11.09956 -19.78125,-11.10156 z m -3.59375,22.46093 c 0.49801,-0.11751 0.90652,-0.0618 1.2539,0.15625 0.46318,0.2907 0.82027,0.86828 1.14063,1.70313 0.49952,1.30175 -2.84034,5.71883 -8.67383,11.47265 -5.28063,5.20852 -11.27788,12.96739 -13.52734,17.50001 -3.63895,7.33164 -3.95749,7.62661 -3.19336,2.96093 1.37757,-8.41188 8.24811,-20.87902 15.26172,-27.69531 3.93722,-3.82668 6.24425,-5.74511 7.73828,-6.09766 z m 94.90234,4.53711 c -1.34974,-0.12433 -2.72411,-0.11359 -4.10937,0.043 -16.56775,1.86747 -29.04032,21.26432 -35.73438,53.64844 0.0554,0.26394 0.0664,0.57401 0.0137,0.93164 -0.0719,0.488 -0.16066,0.97306 -0.25586,1.45703 -0.086,0.64704 -0.20414,1.28888 -0.24414,1.94141 -0.0789,0.6719 -0.19794,1.33801 -0.27734,2.00976 -0.0875,0.54004 -0.18436,1.08284 -0.33594,1.60938 -0.0113,0.25645 -0.0136,0.51333 -0.0351,0.76953 -0.0626,0.69336 -0.15033,1.38393 -0.2793,2.06836 -0.0171,0.0965 -0.023,0.19279 -0.0371,0.28906 1e-5,0.18295 3e-5,0.36589 0,0.54883 0,1.13115 -3.5e-4,2.26143 -0.002,3.39258 -0.001,1.0533 -0.003,2.10701 -0.01,3.16015 -0.007,0.96957 -0.0143,1.9394 -0.0566,2.90821 -0.0359,0.66287 -0.1379,1.31921 -0.25391,1.97265 5e-5,0.32492 2.2e-4,0.64984 0,0.97461 0,0.7146 -4e-4,1.428 -0.004,2.14258 -0.004,0.78737 -0.008,1.57608 -0.0254,2.36328 -0.019,0.71648 -0.0408,1.43334 -0.11719,2.14649 -0.0556,0.50355 -0.14839,1.00196 -0.15039,1.50976 -0.0339,0.55986 -0.0826,1.11992 -0.1582,1.67578 -0.0222,0.18491 -0.015,0.37132 -0.0254,0.55665 0.002,0.41412 0.002,0.82848 0.006,1.24218 0.009,0.70989 0.0222,1.41957 0.0527,2.12891 0.0378,0.79881 0.0894,1.59602 0.19922,2.38867 0.0904,0.67821 0.17245,1.35847 0.22265,2.04102 0.0216,0.29337 0.004,0.5498 -0.041,0.77148 0.0223,0.21287 0.0902,0.42015 0.084,0.63672 0.0239,0.49684 0.0746,0.9916 0.125,1.48633 0.0419,0.21916 0.0583,0.42338 0.0547,0.61133 0.13471,1.03657 0.30559,2.0678 0.43164,3.10547 0.0814,0.82616 0.0921,1.65253 0.0781,2.48242 5e-5,0.73098 -2.5e-4,1.46237 0,2.19336 0,0.91779 -3e-4,1.83612 0.002,2.7539 0.001,0.64275 0.002,1.28508 0.0137,1.92774 0.011,0.5303 0.0273,1.06062 0.0645,1.58984 0.0438,0.5877 0.12117,1.17028 0.16407,1.75781 v 1.95899 1.76172 c 0,0.53314 1e-5,1.06647 0,1.59961 -10e-6,0.64261 8e-5,1.28512 0,1.92773 -9e-5,0.56927 -8e-4,1.13776 -0.002,1.70703 -0.001,0.6707 -4e-4,1.34103 -0.004,2.01172 -0.005,0.89613 -0.0114,1.7935 -0.0312,2.68945 -0.0233,0.8898 -0.0523,1.77997 -0.14258,2.66602 -0.0303,0.28505 -0.0853,0.56635 -0.12695,0.84961 0.0722,0.64515 0.1319,1.29146 0.17382,1.93945 0.0489,1.25597 0.1399,2.51117 0.2168,3.76563 0.0645,1.03945 0.1007,2.08002 0.125,3.12109 0.0562,0.87601 0.1343,1.75075 0.1875,2.62695 0.0831,0.63883 0.16832,1.27644 0.22852,1.91797 0.0277,0.55534 0.16887,1.09611 0.29687,1.63477 0.2323,0.95029 0.40704,1.90995 0.53906,2.8789 0.11028,0.86394 0.16332,1.73383 0.19922,2.60352 0.0237,0.62342 0.0331,1.24731 0.0391,1.87109 0.004,0.57726 0.005,1.15319 0.006,1.73047 -0.0252,0.65014 0.019,1.29478 0.0781,1.94141 0.0994,0.6129 0.1976,1.22658 0.31641,1.83594 0.12236,0.67279 0.18865,1.35279 0.29882,2.02734 0.0661,0.59006 0.16286,1.1694 0.33204,1.73828 0.13607,0.51234 0.30109,1.01585 0.42578,1.53125 0.13388,0.57499 0.17718,1.16426 0.20898,1.75196 -0.004,0.52474 0.0832,1.0408 0.14258,1.56054 0.0254,0.67448 0.17899,1.32992 0.29492,1.99219 0.11766,0.77732 0.22278,1.55619 0.33789,2.33398 0.0608,0.54221 0.28477,1.04795 0.42969,1.57227 0.15573,0.57704 0.29481,1.15371 0.37891,1.74609 0.12571,0.67078 0.21296,1.34763 0.33203,2.01953 0.12331,0.75102 0.31749,1.48678 0.46875,2.23243 1.06791,2.17722 2.27176,4.20406 4.04101,6.21679 5.90125,6.71336 18.59044,13.98633 24.4043,13.98633 4.68193,0 11.5169,-3.68032 14.34961,-7.72461 1.91986,-2.74083 2.3115,-8.68683 2.3125,-35.16797 0.002,-33.12014 2.20217,-58.55267 7.54297,-87.17773 3.84465,-20.60695 5.16116,-43.52534 2.96094,-51.58399 -2.98878,-10.94746 -11.27263,-18.45975 -20.72071,-19.33008 z m 417.7754,3.27539 c -39.86726,0.0414 -81.81871,37.10165 -93.85156,89.17383 -3.15117,13.63665 -3.35277,14.02793 -5.30664,10.29883 -2.36299,-4.50981 -9.04134,-8.35351 -14.51367,-8.35351 -5.37212,0 -16.92617,6.21892 -22.44141,12.08007 -6.55537,6.96673 -11.00886,16.58078 -11.96289,25.82422 -0.64573,6.25669 -1.4501,8.11895 -3.83203,8.875 -5.22961,1.65981 -6.94141,-2.95268 -6.94141,-18.69922 0,-21.67665 6.37486,-42.67779 15.17188,-49.97851 1.89724,-1.5747 2.40205,-1.27364 3.20117,1.91015 1.37205,5.46671 10.6321,15.11745 16.30078,16.98829 10.68798,3.52724 16.72201,-3.07629 20.86914,-22.8379 5.33216,-25.40897 1.09714,-47.66436 -10.79688,-56.73632 -7.68516,-5.86189 -21.25201,-5.7548 -33.51367,0.26562 -10.21095,5.01368 -25.76524,19.7782 -34.46289,32.71289 -38.03867,56.56887 -34.87375,136.01466 6.20508,155.74805 21.06647,10.11989 50.32019,-3.57584 64.84961,-30.35937 5.57268,-10.2729 11.2285,-27.25888 12.41016,-37.27149 l 0.96484,-8.17383 2.58984,12.01758 c 5.09002,23.62291 16.58584,39.89291 34.41602,48.70508 19.03488,9.40753 38.09506,8.67164 59.89453,-2.30859 19.1347,-9.63799 35.01073,-24.77743 46.35938,-44.20704 l 4.94531,-8.46289 3.5,4.16016 c 4.27,5.07464 10.44668,5.47666 18.42774,1.19922 3.03819,-1.62846 5.85946,-2.96094 6.26953,-2.96094 0.41007,0 0.74609,3.35937 0.74609,7.46485 0,15.94023 7.00946,40.37508 14.35156,50.02734 9.13024,12.00279 19.69617,13.57363 36.25001,5.39258 27.63702,-13.65866 47.47756,-34.15788 63.01367,-65.10547 28.6773,-57.12491 17.10761,-116.55159 -24.36914,-125.16211 -33.32216,-6.91776 -73.48493,18.76553 -98.88477,63.23242 l -6.625,11.5957 -0.0371,-5.92187 c -0.16464,-26.55213 -16.11201,-55.08058 -36.32227,-64.97657 -8.58497,-4.20358 -17.67487,-6.16579 -26.875,-6.15625 z m 288.13673,15.72657 c 0,-0.84789 -28.72398,6.9996 -43.51367,18.61914 -24.2554,19.05606 -39.45588,47.19564 -43.56641,80.65039 -1.88767,14.64975 -6.82855,25.33513 5.39844,49.05859 l 2.2207,3.38868 c 3.45022,5.26553 16.95459,13.86999 26.60156,16.95117 9.96424,3.18249 23.49561,3.69597 34.94336,1.32617 23.8633,-4.93979 48.36389,-24.82086 60.31639,-48.94141 9.4976,-19.16698 9.6288,-31.06665 0.4219,-38.30859 -5.1305,-4.03566 -16.6239,-3.88509 -25.4102,0.33398 -3.7175,1.78518 -11.19957,7.74023 -16.62887,13.23243 -5.42885,5.49204 -12.60365,11.37915 -15.9414,13.08203 -5.7355,2.92586 -20.65463,6.63058 -21.85743,5.42773 -0.3061,-0.30604 4.29853,-2.88091 10.23243,-5.72265 17.2391,-8.25643 29.29492,-20.87602 29.29492,-30.66602 0,-1.74597 -1.71906,-4.89468 -3.82031,-6.9961 -3.5729,-3.5728 -4.5106,-3.77126 -14.43555,-3.07421 -5.985,0.42034 -13.67928,2.09354 -17.64453,3.83593 -7.9643,3.49969 -8.90449,2.53939 -2.96094,-3.02148 6.76055,-6.32524 12.81446,-8.58789 22.97461,-8.58789 23.60277,0 43.08427,-13.69607 45.11527,-31.71485 0.9681,-8.5893 -0.2036,-12.8868 -5.1094,-18.71679 -5.1518,-6.12264 -12.47893,-9.94736 -21.10157,-10.09961 -7.65211,-0.13511 -5.5293,1.83751 -5.5293,-0.0566 z m -710.28322,2.11132 2.75195,3.36915 c 2.73914,3.35596 2.72036,3.40118 -4.18164,10.71289 -3.81185,4.03804 -10.08531,13.18063 -13.94141,20.3164 -7.45265,13.7917 -7.99688,13.95021 -5.41601,1.57422 2.32838,-11.16516 9.12356,-24.74743 15.4043,-30.79101 z m 68.75977,1.29493 c 0.90577,-0.0983 1.66217,0.22464 2.17578,1.04297 1.80017,2.86803 0.64166,5.96609 -7.59571,20.33203 -3.89418,6.79159 -7.52096,14.96254 -8.06054,18.15625 -1.12015,6.63 -3.69485,7.85287 -3.65625,1.73633 0.0442,-6.99876 4.20324,-24.16562 7.50976,-30.9961 2.8511,-5.88948 6.90962,-9.97643 9.62696,-10.27148 z m 324.21289,2.87304 c 1.03392,-0.43485 1.75793,0.14684 3.02539,1.38477 2.54436,2.4848 2.34403,2.91351 -4.82812,10.36328 -4.1148,4.27406 -10.00971,10.94585 -13.09961,14.82617 -3.08989,3.88045 -8.20471,11.87352 -11.36719,17.76367 -3.48643,6.49396 -5.36153,8.96241 -4.76367,6.26954 2.54539,-11.46564 15.04028,-33.40288 26.14063,-45.89258 2.51351,-2.82829 3.8588,-4.27999 4.89257,-4.71485 z m -120.92969,11.91602 c 0.4133,-0.10825 0.75539,-0.0569 1.08008,0.13086 0.43292,0.25032 0.83388,0.7416 1.33203,1.41406 1.91748,2.58841 1.32183,3.5759 -7.14843,11.8418 -5.08316,4.96036 -11.5081,12.51827 -14.27735,16.79297 -2.76926,4.27455 -5.2692,7.77148 -5.55469,7.77148 -0.2855,0 -0.0889,-1.83328 0.4375,-4.07226 1.84422,-7.84493 9.69325,-20.69231 17.03907,-27.89258 3.9713,-3.89284 5.85202,-5.6616 7.09179,-5.98633 z m 418.1465,3.2832 c 0.52815,0.0582 0.9371,0.29224 1.20312,0.72266 0.5351,0.86543 0.74018,1.71906 0.45508,1.89844 -0.2851,0.17938 -3.41387,2.26754 -6.95117,4.64062 -3.5372,2.37309 -9.02833,7.3452 -12.20313,11.04883 -6.2641,7.30735 -7.72761,7.05965 -2.5957,-0.43945 6.87919,-10.0524 16.39472,-18.27821 20.0918,-17.8711 z m -154.33204,6.83594 c 0.98163,-0.0607 1.31641,0.91237 1.31641,2.75391 0,1.83674 -4.32596,7.28301 -10.875,13.69336 -5.98078,5.85396 -13.30775,14.30033 -16.2832,18.76757 -6.65696,9.99421 -7.04158,6.74688 -0.71485,-6.0371 3.01252,-6.0872 8.31698,-13.07024 14.79492,-19.48047 6.69127,-6.62129 10.12567,-9.59607 11.76172,-9.69727 z m 34.61914,17.46875 c 5.03494,0 6.66797,3.00296 6.66797,12.25781 0,9.66901 -4.51067,22.6555 -12.68554,36.52149 -2.66419,4.51872 -8.15235,11.88127 -12.19532,16.35937 l -7.35156,8.14258 -0.85547,-9.62304 c -0.47081,-5.29248 -1.23732,-16.36066 -1.70312,-24.59571 l -0.84571,-14.97266 6.09571,-7.71289 c 6.56718,-8.30816 17.83619,-16.37695 22.87304,-16.37695 z m -149.68164,0.47852 c 2.88818,0.67534 4.08147,5.04518 3.50586,13.08984 -0.90412,12.63612 -8.54016,29.30669 -18.11133,39.53906 -3.74166,4.0003 -8.12346,7.6173 -9.73633,8.03907 -13.95079,3.64814 -6.34444,-33.13941 10.66797,-51.59571 6.20262,-6.7289 10.78566,-9.7476 13.67383,-9.07226 z m -467.02149,30.73047 c 0.005,0.0496 0.013,0.0987 0.0176,0.14843 0.003,0.0286 0.005,0.0573 0.008,0.0859 0.001,-0.0768 0.004,-0.15363 0.006,-0.23047 -0.0104,-0.001 -0.0208,-0.003 -0.0312,-0.004 z m 206.98633,4.46484 c 0.36519,0.0349 0.79968,0.81879 1.63672,2.38281 2.57117,4.80454 2.06306,17.2451 -1.03711,25.4043 -2.37528,6.25109 -7.61328,15.52606 -7.61328,13.48047 0,-0.38502 0.9881,-5.36335 2.19531,-11.0625 1.20721,-5.6993 2.25292,-13.69449 2.32422,-17.76563 0.0714,-4.071 0.64445,-8.71979 1.27343,-10.33008 0.55898,-1.43058 0.85552,-2.14424 1.22071,-2.10937 z m 433.72657,14.66016 c 3.92497,0 3.5707,4.44038 -1.11328,13.95507 -2.6163,5.31445 -8.17135,13.22569 -12.34375,17.58204 -4.17239,4.35622 -6.49505,6.53852 -5.16211,4.84765 4.54756,-5.76852 11.36529,-19.34467 13.99609,-27.87109 1.49873,-4.85714 3.48371,-8.51367 4.62305,-8.51367 z m -650.97267,2.05273 c 0.3151,-0.1021 0.6644,-0.0704 1.05664,0.0801 1.18816,0.45594 2.43879,0.82812 2.7793,0.82812 2.18407,0 -0.23518,6.51517 -5.29688,14.26172 -8.19317,12.53938 -11.3325,14.63131 -6.08594,4.05664 2.3832,-4.80321 4.80868,-11.26385 5.38868,-14.35547 0.57441,-3.06171 1.2129,-4.56479 2.1582,-4.87109 z m 797.13672,4.40625 c 0.9235,-0.15803 1.1599,0.82774 0.2285,3.27734 -4.505,11.84881 -10.3561,19.49044 -21.3535,27.88477 -10.62053,8.10707 -10.92409,6.37081 -0.81444,-4.66211 5.02634,-5.48541 11.24694,-13.43348 13.82424,-17.66211 3.1284,-5.13297 6.5761,-8.57451 8.1152,-8.83789 z m -294.59179,9.76563 c 0.50266,0.208 0.81055,0.88395 0.81055,2.11718 0,9.2091 -10.91593,25.55438 -20.25977,30.33789 -5.43001,2.77997 -5.166,1.99116 2.51368,-7.53906 4.07477,-5.0568 8.65904,-12.55313 10.1875,-16.65625 1.9766,-5.30643 5.24006,-8.88379 6.74804,-8.25976 z m -142.85547,4.61132 c 0.89295,-0.003 1.67787,0.93759 2.28906,2.86329 1.22995,3.87507 -5.17004,17.84357 -11.98632,26.16211 -2.88222,3.51722 -5.87067,6.39453 -6.64063,6.39453 -0.76996,0 0.83748,-4.4963 3.57227,-9.99219 2.73462,-5.49606 6.20544,-13.49092 7.71289,-17.76563 1.77613,-5.03686 3.56448,-7.65787 5.05273,-7.66211 z" /><path
       style="fill:#ff00ff;stroke-width:0.121883"
       d="m 905.7009,388.47095 c 0.002,-0.36763 0.42803,-1.2557 1.25926,-2.62245 5.0186,-8.25188 13.30646,-16.9619 18.82539,-19.78431 1.67187,-0.85501 2.89975,-1.0579 3.64655,-0.60256 0.55322,0.33732 1.26043,1.80523 1.03521,2.14872 -0.0475,0.0724 -1.9175,1.35412 -4.15558,2.84821 -5.3534,3.57381 -7.57635,5.36272 -11.64266,9.36943 -1.13357,1.11695 -2.83384,2.90682 -3.77837,3.9775 -2.05022,2.32401 -3.43377,3.74431 -4.31829,4.43298 -0.7453,0.58027 -0.87317,0.61438 -0.87151,0.23248 z"
       id="path2" /><path
       style="fill:#ff00ff;stroke-width:0.121883"
       d="m 950.01151,482.24127 c -0.10084,-0.16316 0.54923,-1.33377 1.31783,-2.37308 0.99275,-1.34239 2.8339,-3.51354 5.41336,-6.38362 5.9654,-6.63755 10.3893,-12.19955 13.6448,-17.15537 3.0161,-4.59138 4.05,-5.98347 5.689,-7.65974 2.6216,-2.68123 4.2504,-3.1048 3.8621,-1.00438 -0.1561,0.84415 -0.5082,1.84314 -1.4413,4.08936 -4.4476,10.7059 -10.3687,18.01615 -21.18023,26.14944 -4.53158,3.40901 -6.98068,4.86307 -7.30556,4.33739 z"
       id="path3" /><path
       style="fill:#ff00ff;stroke-width:0.172368"
       d="m 815.38828,475.23771 c 0,-0.0511 0.57388,-0.96813 1.27529,-2.03784 1.98155,-3.02203 3.56524,-5.86855 5.97291,-10.7357 2.61169,-5.27959 4.0687,-8.72849 5.67978,-13.44473 2.31493,-6.77668 3.63524,-9.137 5.08063,-9.08266 1.88234,0.0708 2.63323,1.62539 2.08703,4.32098 -1.2365,6.10239 -6.36059,15.38281 -13.09137,23.71028 -2.06483,2.55466 -7.00427,7.68126 -7.00427,7.26967 z"
       id="path4" /><path
       style="fill:#ff00ff;stroke-width:0.172368"
       d="m 743.5107,412.37351 c 0,-1.55093 3.48017,-9.6667 5.95153,-13.87897 3.50307,-5.97078 7.00423,-10.29017 14.03059,-17.30958 8.09065,-8.08264 10.70674,-9.99094 11.77193,-8.58699 0.5565,0.73347 0.50533,2.3978 -0.11053,3.59586 -1.33372,2.5945 -4.21043,5.95089 -11.30406,13.18892 -7.12925,7.27437 -12.07444,13.01722 -15.43405,17.92356 -2.32165,3.39052 -4.17075,5.60197 -4.68407,5.60197 -0.13265,0 -0.22134,-0.21428 -0.22134,-0.53477 z"
       id="path5" /><path
       style="fill:#ff00ff;stroke-width:0.243766"
       d="m 661.70172,489.49829 c 0,-0.51077 1.65059,-2.84286 5.00737,-7.07484 5.27799,-6.65407 8.7301,-12.1717 11.31431,-18.08402 1.97612,-4.52109 3.72989,-7.07708 5.47576,-7.98047 1.51482,-0.78384 2.12297,0.59132 1.65778,3.74861 -1.16647,7.91687 -9.01249,20.25355 -16.44118,25.85124 -3.12542,2.35507 -7.01404,4.31738 -7.01404,3.53948 z"
       id="path6" /><path
       style="fill:#ff00ff;stroke-width:0.344737"
       d="m 600.71122,400.86029 c -0.0183,-0.98711 1.93452,-6.5064 3.84348,-10.86282 5.04279,-11.50808 13.80284,-25.33017 22.26257,-35.12713 3.25445,-3.76888 4.43107,-4.79031 5.51814,-4.79031 0.84066,0 3.5338,2.77811 3.52169,3.63279 -0.0136,0.96231 -1.16091,2.37123 -7.45422,9.1543 -11.47938,12.37275 -15.79516,18.14335 -22.8914,30.60792 -3.51182,6.16853 -4.78645,8.12957 -4.80026,7.38525 z"
       id="path7" /><path
       style="fill:#ff00ff;stroke-width:0.243766"
       d="m 486.19652,398.55675 c -0.0126,-2.55198 2.20661,-8.57833 5.02773,-13.65312 4.39718,-7.9099 9.3135,-14.23158 15.36549,-19.75778 3.26888,-2.98489 4.19077,-3.51147 5.10217,-2.9143 1.0403,0.68164 2.04409,2.30448 2.04409,3.30472 0,1.31346 -1.28645,2.91342 -6.8569,8.52797 -7.78314,7.84476 -12.06122,12.9583 -17.22788,20.59226 -1.36109,2.01107 -2.69412,3.93072 -2.9623,4.2659 l -0.48759,0.60942 z"
       id="path8" /><path
       style="fill:#ff00ff;stroke-width:0.243766"
       d="m 525.43675,495.45732 c 0,-0.90172 1.70163,-5.09994 4.15126,-10.2419 2.85716,-5.99739 5.11953,-11.20024 6.97498,-16.04062 2.32732,-6.07138 3.74837,-8.33594 5.23096,-8.33594 0.81961,0 1.72121,1.18755 2.15232,2.83494 0.94735,3.62016 -4.48616,15.98435 -10.58626,24.08948 -1.86575,2.479 -5.21013,6.21543 -6.37338,7.12051 -1.42022,1.10502 -1.54988,1.153 -1.54988,0.57353 z"
       id="path9" /><path
       style="fill:#ff00ff;stroke-width:0.172368"
       d="m 392.50402,465.95463 c 0.0544,-0.30811 0.70474,-3.58526 1.44515,-7.28256 2.07117,-10.34253 2.59251,-14.06091 3.01246,-21.48576 0.27155,-4.80097 0.45014,-6.49484 0.89685,-8.50633 0.34208,-1.5403 1.15494,-3.36118 1.50048,-3.36118 0.33999,0 1.60993,2.18002 2.10735,3.61757 0.73862,2.13459 0.9859,4.12206 0.99748,8.01729 0.0202,6.77471 -1.04817,12.3379 -3.44849,17.95758 -2.01727,4.72291 -5.84605,11.60358 -6.45685,11.60358 -0.0844,0 -0.10885,-0.25208 -0.0544,-0.56019 z"
       id="path10" /><path
       style="fill:#ff00ff;stroke-width:0.172368"
       d="m 290.74314,391.5777 c -0.41513,-0.94766 -0.48419,-4.13988 -0.14902,-6.88901 1.03765,-8.51102 4.46582,-21.44368 7.17979,-27.08554 2.85915,-5.94368 7.03872,-10.35997 9.84126,-10.39865 0.86809,-0.012 1.46607,0.405 2.04449,1.42567 0.61288,1.08146 0.59139,2.8318 -0.058,4.72486 -0.7043,2.05311 -3.18768,6.96733 -6.31516,12.4967 -5.49208,9.70999 -8.73526,16.84383 -9.56224,21.03356 -0.5012,2.5392 -1.11287,4.21176 -1.81062,4.95097 -0.52231,0.55334 -0.84618,0.4818 -1.1705,-0.25856 z"
       id="path11" /><path
       style="fill:#ff00ff;stroke-width:0.121883"
       d="m 216.52506,389.81166 c 4e-4,-1.35505 0.9541,-6.60903 1.83507,-10.10944 2.29164,-9.10562 7.23293,-19.43322 12.38071,-25.87645 1.55622,-1.94784 7.75083,-8.01138 7.95801,-7.78963 0.24159,0.25859 2.92336,3.58024 3.39058,4.19957 1.59461,2.1138 1.25794,2.89248 -3.41967,7.90923 -2.58371,2.77103 -3.85382,4.27106 -5.6226,6.64039 -3.95315,5.29536 -7.02396,10.14228 -10.8587,17.13921 -2.98081,5.43884 -4.29018,7.63333 -5.0332,8.4356 -0.51162,0.55242 -0.6305,0.44896 -0.6302,-0.54848 z"
       id="path12" /><path
       style="fill:#ff00ff;stroke-width:0.243766"
       d="m 125.02629,355.33967 c 0.696,-7.52096 7.21916,-20.26742 14.2131,-27.77283 3.4055,-3.65455 7.51536,-6.98026 8.99054,-7.27518 0.63784,-0.12752 0.85022,-0.0333 1.40165,0.62208 0.35745,0.42481 0.64991,1.04364 0.64991,1.37519 0,1.49029 -2.20884,4.39608 -7.61128,10.01286 -7.79529,8.10456 -12.19165,13.87358 -15.32236,20.10638 -0.78688,1.56656 -1.66306,3.21198 -1.94706,3.65648 l -0.51638,0.80819 z"
       id="path13" /><path
       style="fill:#ff00ff;stroke-width:0.121883"
       d="m 172.08078,467.66205 c -0.17129,-0.44639 0.62702,-2.55994 2.20892,-5.84812 2.75776,-5.73236 4.8288,-11.1326 5.60919,-14.62594 0.91699,-4.10482 1.49227,-5.30285 2.54563,-5.30136 0.20882,2.9e-4 0.92815,0.18513 1.59851,0.41075 0.67035,0.22562 1.45223,0.44964 1.7375,0.49782 0.64078,0.10823 0.88298,0.42415 0.88298,1.15176 0,1.76984 -1.77841,5.9494 -4.38702,10.31023 -2.20681,3.68914 -6.6078,9.99749 -8.43619,12.09237 -0.57282,0.65631 -1.49436,1.49756 -1.64049,1.49756 -0.0264,0 -0.08,-0.0833 -0.11903,-0.18507 z"
       id="path14" /><path
       id="path31"
       style="fill:#000000"
       d="m 187.2129,412.57423 4.50781,56.06445 c 0,-0.26629 0.21824,-0.75118 0.36719,-0.97461 0.0319,-0.0478 0.0805,-0.0805 0.12109,-0.12109 0.0406,0 0.0943,0.0287 0.12305,0 0.0574,-0.0575 -0.0575,-0.18664 0,-0.24414 0.0642,-0.0643 0.17798,-0.0569 0.24218,-0.12109 0.14699,-0.14704 -0.15569,-1.3072 0.12305,-1.58594 0.0287,-0.0287 0.0873,0.0225 0.12109,0 0.15145,-0.10096 1.09464,-1.21467 1.21875,-1.46289 0.0363,-0.0727 -0.0575,-0.18469 0,-0.24219 0.0287,-0.0287 0.0943,0.0287 0.12305,0 0.13414,-0.13414 0.25979,-0.62697 0.36524,-0.73242 0.13262,-0.13259 0.15964,0.21707 0.24414,-0.1211 0.0296,-0.11824 -0.0239,-0.24572 0,-0.36523 0.0981,-0.49048 0.0873,-0.0575 0.24218,-0.36719 0.0841,-0.16823 0.0395,-0.44238 0.12305,-0.60937 0.0182,-0.0363 0.0924,0.0287 0.12109,0 0.0564,-0.0563 -0.0368,-0.29164 0,-0.36524 0.14976,-0.29951 0.21549,-0.67511 0.36524,-0.97461 0.14481,-0.28962 -0.10289,-0.78897 0,-1.09765 0.0258,-0.0775 0.43068,-0.93068 0.48828,-1.21875 0.0389,-0.19423 0.0326,-0.43236 0.12109,-0.60938 0.0569,-0.11383 0.1481,-0.20892 0.24414,-0.30273 0.0243,-0.17338 0.0431,-0.34744 0.0605,-0.52149 0.0323,-0.40137 0.0843,-0.80209 0.12109,-1.20312 0.0269,-0.29763 0.0418,-0.5959 0.0508,-0.89453 0.006,-0.27939 0.008,-0.55843 0.01,-0.83789 10e-4,-0.25624 0.002,-0.5133 0.002,-0.76953 2e-4,-0.24625 -4e-5,-0.49205 0,-0.73829 3e-5,-0.2562 -1e-5,-0.51137 0,-0.76757 v -0.30274 c -0.0641,-0.19249 -0.0209,-0.43104 0,-0.6582 v -0.0664 c 0,-0.0377 0.002,-0.074 0.004,-0.10937 1.3e-4,-0.002 -1.4e-4,-0.004 0,-0.006 -4.9e-4,-0.0454 0.003,-0.0924 -0.004,-0.13477 -0.10615,-0.63686 -0.0469,-1.35945 -0.24414,-1.95117 -0.17618,-0.52863 0.0793,-1.22683 -0.12109,-1.82813 -0.14794,-0.44381 0,-1.22673 0,-1.70507 0,-1.33605 0.0941,-2.7206 -0.12305,-4.02344 -0.0267,-0.1603 0.0727,-0.34098 0,-0.48633 -0.0406,-0.0813 -0.0569,-0.17994 -0.12109,-0.24414 -0.0287,-0.0287 -0.10289,0.0363 -0.12109,0 -0.10938,-0.21876 0.038,-0.74664 0,-0.97461 -0.0968,-0.58083 -0.22443,-1.13599 -0.36719,-1.70703 -0.0436,-0.17444 0.079,-0.45141 0,-0.60938 -0.10139,-0.20279 -0.26954,-0.29695 -0.36524,-0.48828 -0.0812,-0.16251 0.0813,-0.44686 0,-0.60937 -0.071,-0.14198 -0.17314,-0.22326 -0.24414,-0.36524 -0.0585,-0.11697 0.039,-0.36927 0,-0.48632 -0.0182,-0.0545 -0.0954,-0.0716 -0.12109,-0.12305 -0.11289,-0.22492 -0.0124,-0.6362 -0.12109,-0.85352 -0.12325,-0.24651 -0.17134,-0.56034 -0.24414,-0.85156 -0.0772,-0.30875 0.0406,-0.81309 0,-1.09766 -0.0128,-0.0899 -0.10105,-0.15604 -0.12305,-0.24414 -0.0296,-0.11824 0.0862,-0.27903 0,-0.36523 -0.0287,-0.0287 -0.1083,0.0385 -0.1211,0 -0.13538,-0.40615 0.0639,-0.51211 -0.12109,-0.97461 -0.0213,-0.0534 -0.0824,-0.0824 -0.12305,-0.12305 -0.0406,0 -0.10289,0.0363 -0.12109,0 -0.0727,-0.14536 0.0514,-0.33216 0,-0.48632 -0.12681,-0.38043 -0.0816,0.0395 -0.24414,-0.12305 -0.13438,-0.13437 0.0506,-0.89311 0,-1.0957 -0.0618,-0.24726 -0.25577,-0.86711 -0.36523,-0.97657 -0.0642,-0.0642 -0.19375,-0.0455 -0.24415,-0.12109 -0.14228,-0.2134 0.008,-0.47265 -0.12109,-0.73047 -0.0433,-0.0866 -0.20084,-0.15754 -0.24414,-0.24414 -0.0777,-0.15535 0.0423,-0.44018 0,-0.60938 -0.022,-0.0881 -0.0943,-0.15794 -0.12305,-0.24414 -0.0609,-0.18282 0.0609,-0.42655 0,-0.60937 -0.0824,-0.24708 -0.17918,-0.48061 -0.24218,-0.73242 -0.0296,-0.11825 0.0296,-0.247 0,-0.36524 -0.1864,-0.74559 -0.0451,0.0328 -0.48829,-0.85351 -0.0363,-0.0727 0.0257,-0.16509 0,-0.24219 -0.0363,-0.10901 -0.18044,-0.14854 -0.24414,-0.24414 -0.0504,-0.0756 -0.0805,-0.16284 -0.12109,-0.24414 0,-0.0406 0.0182,-0.0848 0,-0.1211 -0.25377,-0.50725 0.008,0.12914 -0.24414,-0.12304 -0.10325,-0.10325 0.0221,-0.84194 0,-0.97461 -0.21226,-1.2734 0.0307,-0.0904 -0.24414,-0.36524 -0.0798,-0.0797 -0.0625,-0.79891 -0.12109,-0.97461 -0.0128,-0.0385 -0.11015,0.0385 -0.12305,0 -0.0385,-0.11562 0.0296,-0.24894 0,-0.36718 -0.0279,-0.11148 -0.19274,-0.13941 -0.24414,-0.24219 -0.0506,-0.10122 0,-0.37273 0,-0.48828 0,-0.31806 -0.0484,-0.44148 -0.1211,-0.73242 -0.0296,-0.11824 0.0862,-0.27904 0,-0.36524 -0.0287,-0.0287 -0.10289,0.0363 -0.12109,0 -0.0545,-0.10901 0.0862,-0.27903 0,-0.36523 -0.0287,-0.0287 -0.0867,0.0182 -0.12305,0 -0.50725,-0.25377 0.13109,0.008 -0.12109,-0.24414 -0.0609,-0.061 -0.18324,-0.0602 -0.24414,-0.1211 -0.0575,-0.0575 0.0574,-0.18664 0,-0.24414 -0.0642,-0.0643 -0.19374,-0.0455 -0.24414,-0.12109 -0.12088,-0.18086 0.004,-0.24234 -0.1211,-0.36719 -0.0287,-0.0287 -0.0943,0.0287 -0.12304,0 -0.10159,-0.10157 -0.0195,-0.38476 -0.1211,-0.48633 -0.0287,-0.0287 -0.0848,0.0182 -0.12109,0 -0.50725,-0.25377 0.12913,0.008 -0.12305,-0.24414 -0.0575,-0.0575 -0.18664,0.0575 -0.24414,0 -0.0287,-0.0287 0.0287,-0.0924 0,-0.12109 -0.25176,-0.25218 0.0114,0.3842 -0.24218,-0.12305 -0.0182,-0.0364 0.0287,-0.0924 0,-0.12109 -0.25177,-0.25218 0.009,0.3842 -0.24415,-0.12305 -0.0893,-0.17848 -0.0617,-0.42546 -0.12304,-0.60937 -0.30787,-0.92359 0.0456,0.0456 -0.24219,-0.24219 -0.16663,-0.16663 -0.317,-1.22975 -0.60937,-1.21875 z" /></g></svg>
