<?xml version="1.0" encoding="UTF-8" standalone="no"?>
<!-- Created with Inkscape (http://www.inkscape.org/) -->

<svg
   width="113.43831mm"
   height="105.97856mm"
   viewBox="0 0 113.43831 105.97856"
   version="1.1"
   id="svg1"
   xml:space="preserve"
   xmlns="http://www.w3.org/2000/svg"
   xmlns:svg="http://www.w3.org/2000/svg"><defs
     id="defs1" /><g
     id="layer1"
     transform="translate(-43.442243,-86.840444)"><path
       style="fill:#000000"
       d="m 64.8413,192.69363 c -9.661452,-1.01895 -17.716391,-7.88461 -20.679805,-17.62651 -0.628398,-2.06579 -0.708612,-2.76808 -0.718884,-6.294 -0.01282,-4.40051 0.303351,-6.15985 1.717406,-9.55657 1.868374,-4.48803 1.562125,-4.15598 31.135814,-33.75884 15.222736,-15.23775 28.008689,-27.842094 28.413219,-28.009664 0.9922,-0.41098 1.99499,-0.11501 2.90275,0.85675 0.79492,0.85096 0.94555,1.728734 0.461,2.686244 -0.16086,0.31786 -12.646766,12.96042 -27.746467,28.09459 -15.099702,15.13416 -27.810828,28.05244 -28.246947,28.70729 -2.28317,3.42823 -3.261399,6.65416 -3.26504,10.76718 -0.0074,8.36792 5.08038,15.31341 13.204735,18.02617 1.776747,0.59327 2.471718,0.67724 5.600344,0.67672 3.162007,-5.3e-4 3.81476,-0.0815 5.688541,-0.70565 4.506047,-1.50094 2.64687,0.2217 40.312594,-37.35219 22.74725,-22.69179 35.11308,-35.21353 35.7888,-36.24002 1.43741,-2.18359 2.08298,-4.43829 2.08298,-7.27498 0,-3.96458 -1.17094,-6.806784 -3.93976,-9.562844 -4.19985,-4.18051 -9.99132,-5.08864 -15.59417,-2.44523 -1.30444,0.61543 -5.20956,4.40837 -29.89468,29.035934 -15.616832,15.58042 -28.673032,28.80428 -29.013779,29.38636 -2.44048,4.16898 -0.437708,9.82993 4.081396,11.53632 1.990396,0.75156 4.624693,0.60377 6.49537,-0.36441 0.999381,-0.51723 6.402422,-5.77277 22.092703,-21.48959 11.42339,-11.4427 21.09131,-20.97584 21.48426,-21.18475 1.90268,-1.01158 3.91575,0.17676 3.91575,2.3115 v 1.14457 l -21.62969,21.60472 c -22.854287,22.8279 -22.354589,22.37454 -25.843614,23.44698 -1.807554,0.55559 -5.43604,0.54042 -7.358493,-0.0308 -8.327423,-2.47419 -12.200463,-11.97408 -7.999107,-19.62041 0.523865,-0.95341 8.827212,-9.422 29.728374,-30.31996 28.33809,-28.333754 29.05024,-29.021894 31.13312,-30.083124 3.10541,-1.58222 5.67098,-2.21497 8.98086,-2.21497 8.32852,0 15.40455,5.15359 18.04293,13.14097 0.61447,1.860254 0.70005,2.549384 0.70644,5.688544 0.006,3.17724 -0.0708,3.80574 -0.69917,5.68854 -1.50572,4.51148 0.25561,2.61268 -37.75044,40.69688 -37.354381,37.4312 -36.899537,37.00311 -41.263345,38.83659 -3.704223,1.55635 -8.29258,2.227 -12.325995,1.80162 z"
       id="path1" /></g></svg>
