<?xml version="1.0" encoding="UTF-8" standalone="no"?>
<!-- Created with Inkscape (http://www.inkscape.org/) -->

<svg
   width="296.99997mm"
   height="210mm"
   viewBox="0 0 1122.5196 793.70081"
   version="1.1"
   id="svg1"
   xmlns="http://www.w3.org/2000/svg"
   xmlns:svg="http://www.w3.org/2000/svg">
  <defs
     id="defs1" />
  <g
     id="layer1">
    <g
       id="g4"
       transform="matrix(5.4039161,0,0,5.4039161,-2080.528,-1165.0768)">
      <path
         d="m 423.45801,261.80234 v 4.70312 h 3.34375 v 1.09375 h -3.34375 v 9.28125 q 0,1.39063 0.39062,1.875 0.40625,0.48438 1.03125,0.48438 0.51563,0 1,-0.3125 0.48438,-0.32813 0.75,-0.95313 h 0.60938 q -0.54688,1.53125 -1.54688,2.3125 -1,0.76563 -2.0625,0.76563 -0.71875,0 -1.40625,-0.39063 -0.6875,-0.40625 -1.01562,-1.14062 -0.32813,-0.75 -0.32813,-2.29688 v -9.625 h -2.26562 v -0.51562 q 0.85937,-0.34375 1.75,-1.15625 0.90625,-0.82813 1.60937,-1.95313 0.35938,-0.59375 1,-2.17187 z m 8.22062,10.09375 q -0.0156,3.1875 1.54688,5 1.5625,1.8125 3.67187,1.8125 1.40625,0 2.4375,-0.76563 1.04688,-0.78125 1.75,-2.65625 l 0.48438,0.3125 q -0.32813,2.14063 -1.90625,3.90625 -1.57813,1.75 -3.95313,1.75 -2.57812,0 -4.42187,-2 -1.82813,-2.01562 -1.82813,-5.40625 0,-3.67187 1.875,-5.71875 1.89063,-2.0625 4.73438,-2.0625 2.40625,0 3.95312,1.59375 1.54688,1.57813 1.54688,4.23438 z m 0,-0.90625 h 6.625 q -0.0781,-1.375 -0.32812,-1.9375 -0.39063,-0.875 -1.17188,-1.375 -0.76562,-0.5 -1.60937,-0.5 -1.29688,0 -2.32813,1.01562 -1.01562,1 -1.1875,2.79688 z m 17.06438,-4.90625 v 3.21875 q 1.79687,-3.21875 3.6875,-3.21875 0.85937,0 1.42187,0.53125 0.5625,0.51562 0.5625,1.20312 0,0.60938 -0.40625,1.03125 -0.40625,0.42188 -0.96875,0.42188 -0.54687,0 -1.23437,-0.53125 -0.67188,-0.54688 -1,-0.54688 -0.28125,0 -0.60938,0.3125 -0.70312,0.64063 -1.45312,2.10938 v 6.85937 q 0,1.1875 0.29687,1.79688 0.20313,0.42187 0.71875,0.70312 0.51563,0.28125 1.48438,0.28125 v 0.5625 h -7.32813 v -0.5625 q 1.09375,0 1.625,-0.34375 0.39063,-0.25 0.54688,-0.79687 0.0781,-0.26563 0.0781,-1.51563 v -5.54687 q 0,-2.5 -0.10937,-2.96875 -0.0937,-0.48438 -0.375,-0.70313 -0.26563,-0.21875 -0.67188,-0.21875 -0.48437,0 -1.09375,0.23438 l -0.15625,-0.5625 4.32813,-1.75 z m 11.79875,3.04687 q 1.5625,-1.5625 1.84375,-1.79687 0.70312,-0.59375 1.51562,-0.92188 0.8125,-0.32812 1.60938,-0.32812 1.34375,0 2.3125,0.78125 0.96875,0.78125 1.29687,2.26562 1.60938,-1.875 2.71875,-2.45312 1.10938,-0.59375 2.28125,-0.59375 1.14063,0 2.01563,0.59375 0.89062,0.57812 1.40625,1.90625 0.34375,0.90625 0.34375,2.84375 v 6.15625 q 0,1.34375 0.20312,1.84375 0.15625,0.34375 0.57813,0.59375 0.42187,0.23437 1.375,0.23437 v 0.5625 h -7.0625 v -0.5625 h 0.29687 q 0.92188,0 1.4375,-0.35937 0.35938,-0.25 0.51563,-0.79688 0.0625,-0.26562 0.0625,-1.51562 v -6.15625 q 0,-1.75 -0.42188,-2.46875 -0.60937,-1 -1.95312,-1 -0.82813,0 -1.67188,0.42187 -0.82812,0.40625 -2.01562,1.53125 l -0.0312,0.17188 0.0312,0.67187 v 6.82813 q 0,1.46875 0.15625,1.82812 0.17187,0.35938 0.625,0.60938 0.45312,0.23437 1.54687,0.23437 v 0.5625 h -7.23437 v -0.5625 q 1.1875,0 1.625,-0.28125 0.45312,-0.28125 0.625,-0.84375 0.0781,-0.26562 0.0781,-1.54687 v -6.15625 q 0,-1.75 -0.51562,-2.51563 -0.6875,-1 -1.92188,-1 -0.84375,0 -1.67187,0.45313 -1.29688,0.6875 -2,1.54687 v 7.67188 q 0,1.40625 0.1875,1.82812 0.20312,0.42188 0.57812,0.64063 0.39063,0.20312 1.5625,0.20312 v 0.5625 h -7.07812 v -0.5625 q 0.98437,0 1.375,-0.20312 0.39062,-0.21875 0.59375,-0.67188 0.20312,-0.46875 0.20312,-1.79687 v -5.46875 q 0,-2.35938 -0.14062,-3.04688 -0.10938,-0.51562 -0.34375,-0.70312 -0.23438,-0.20313 -0.64063,-0.20313 -0.4375,0 -1.04687,0.23438 l -0.23438,-0.5625 4.3125,-1.75 h 0.67188 z m 30.97062,-3.04687 v 4.875 h -0.51562 q -0.59375,-2.29688 -1.53125,-3.125 -0.92188,-0.82813 -2.35938,-0.82813 -1.09375,0 -1.76562,0.57813 -0.67188,0.57812 -0.67188,1.28125 0,0.875 0.5,1.5 0.48438,0.64062 1.96875,1.35937 l 2.28125,1.10938 q 3.17188,1.54687 3.17188,4.07812 0,1.95313 -1.48438,3.15625 -1.46875,1.1875 -3.29687,1.1875 -1.3125,0 -3,-0.46875 -0.51563,-0.15625 -0.84375,-0.15625 -0.35938,0 -0.5625,0.40625 h -0.51563 v -5.10937 h 0.51563 q 0.4375,2.1875 1.67187,3.29687 1.23438,1.10938 2.76563,1.10938 1.07812,0 1.75,-0.625 0.6875,-0.64063 0.6875,-1.53125 0,-1.07813 -0.76563,-1.8125 -0.75,-0.73438 -3.01562,-1.85938 -2.26563,-1.125 -2.96875,-2.03125 -0.70313,-0.89062 -0.70313,-2.25 0,-1.76562 1.20313,-2.95312 1.21875,-1.1875 3.14062,-1.1875 0.84375,0 2.04688,0.35937 0.79687,0.23438 1.0625,0.23438 0.25,0 0.39062,-0.10938 0.14063,-0.10937 0.32813,-0.48437 z m 28.69126,1.09375 h 6.5625 v 0.57812 q -1.35938,0.10938 -2.01563,0.60938 -0.64062,0.48437 -2.01562,2.96875 -1.375,2.48437 -3.09375,4.64062 1.39062,1.625 2.48437,2.28125 1.09375,0.64063 2.20313,0.64063 1.07812,0 1.82812,-0.57813 0.75,-0.59375 1.0625,-1.73437 l 0.57813,0.42187 q -0.57813,2.20313 -1.85938,3.25 -1.28125,1.04688 -2.98437,1.04688 -1.28125,0 -2.60938,-0.6875 -1.3125,-0.70313 -2.875,-2.35938 -1.9375,1.71875 -3.5,2.39063 -1.54687,0.65625 -3.3125,0.65625 -2.57812,0 -4.09375,-1.375 -1.51562,-1.375 -1.51562,-3.28125 0,-1.89063 1.35937,-3.76563 1.35938,-1.89062 5.10938,-3.90625 -0.73438,-1.625 -1,-2.65625 -0.26563,-1.04687 -0.26563,-2 0,-2.67187 1.96875,-4.07812 1.53125,-1.09375 3.48438,-1.09375 1.85937,0 3.03125,1.10937 1.17187,1.09375 1.17187,2.70313 0,1.65625 -1.14062,2.90625 -1.125,1.25 -4,2.73437 1.98437,3.53125 4.14062,6.46875 2.75,-3.28125 2.75,-5.53125 0,-0.71875 -0.46875,-1.28125 -0.34375,-0.42187 -0.98437,-0.5 z m -5.96875,0.40625 q 1.9375,-0.92188 2.89062,-2.09375 0.96875,-1.17188 0.96875,-2.60938 0,-1.125 -0.70312,-1.85937 -0.6875,-0.73438 -1.71875,-0.73438 -1.35938,0 -2.0625,0.95313 -0.6875,0.9375 -0.6875,1.84375 0,0.76562 0.26562,1.71875 0.26563,0.9375 1.04688,2.78125 z m 2.42187,9.76562 q -2.0625,-2.8125 -2.85937,-4.10937 -0.79688,-1.29688 -1.75,-3.21875 -1.875,1.07812 -2.82813,2.375 -0.9375,1.29687 -0.9375,2.8125 0,1.67187 1.07813,2.9375 1.07812,1.26562 2.90625,1.26562 0.98437,0 1.89062,-0.39062 0.92188,-0.39063 2.5,-1.67188 z"
         id="text1"
         style="font-size:32px;line-height:0;font-family:'Times New Roman';-inkscape-font-specification:'Times New Roman, Normal';letter-spacing:1.08px"
         aria-label="terms &amp; " />
      <path
         d="m 426.43607,309.95746 q -2.20313,1.70312 -2.76563,1.96875 -0.84375,0.39062 -1.79687,0.39062 -1.48438,0 -2.45313,-1.01562 -0.95312,-1.01563 -0.95312,-2.67188 0,-1.04687 0.46875,-1.8125 0.64062,-1.0625 2.21875,-2 1.59375,-0.9375 5.28125,-2.28125 v -0.5625 q 0,-2.14062 -0.6875,-2.9375 -0.67188,-0.79687 -1.96875,-0.79687 -0.98438,0 -1.5625,0.53125 -0.59375,0.53125 -0.59375,1.21875 l 0.0312,0.90625 q 0,0.71875 -0.375,1.10937 -0.35938,0.39063 -0.95313,0.39063 -0.57812,0 -0.95312,-0.40625 -0.35938,-0.40625 -0.35938,-1.10938 0,-1.34375 1.375,-2.46875 1.375,-1.125 3.85938,-1.125 1.90625,0 3.125,0.64063 0.92187,0.48437 1.35937,1.51562 0.28125,0.67188 0.28125,2.75 v 4.85938 q 0,2.04687 0.0781,2.51562 0.0781,0.45313 0.25,0.60938 0.1875,0.15625 0.42187,0.15625 0.25,0 0.4375,-0.10938 0.32813,-0.20312 1.26563,-1.14062 v 0.875 q -1.75,2.34375 -3.34375,2.34375 -0.76563,0 -1.21875,-0.53125 -0.45313,-0.53125 -0.46875,-1.8125 z m 0,-1.01563 v -5.45312 q -2.35938,0.9375 -3.04688,1.32812 -1.23437,0.6875 -1.76562,1.4375 -0.53125,0.75 -0.53125,1.64063 0,1.125 0.67187,1.875 0.67188,0.73437 1.54688,0.73437 1.1875,0 3.125,-1.5625 z m 11.00187,-2.14062 q -1.3125,-0.64063 -2.01562,-1.78125 -0.70313,-1.15625 -0.70313,-2.54688 0,-2.125 1.59375,-3.65625 1.60938,-1.53125 4.10938,-1.53125 2.04687,0 3.54687,1 h 3.03125 q 0.67188,0 0.78125,0.0469 0.10938,0.0312 0.15625,0.125 0.0937,0.14062 0.0937,0.5 0,0.40625 -0.0781,0.5625 -0.0469,0.0781 -0.17188,0.125 -0.10937,0.0469 -0.78125,0.0469 h -1.85937 q 0.875,1.125 0.875,2.875 0,2 -1.53125,3.42188 -1.53125,1.42187 -4.10938,1.42187 -1.0625,0 -2.17187,-0.3125 -0.6875,0.59375 -0.9375,1.04688 -0.23438,0.4375 -0.23438,0.75 0,0.26562 0.25,0.51562 0.26563,0.25 1.01563,0.35938 0.4375,0.0625 2.1875,0.10937 3.21875,0.0781 4.17187,0.21875 1.45313,0.20313 2.3125,1.07813 0.875,0.875 0.875,2.15625 0,1.76562 -1.65625,3.3125 -2.4375,2.28125 -6.35937,2.28125 -3.01563,0 -5.09375,-1.35938 -1.17188,-0.78125 -1.17188,-1.625 0,-0.375 0.17188,-0.75 0.26562,-0.57812 1.09375,-1.60937 0.10937,-0.14063 1.59375,-1.6875 -0.8125,-0.48438 -1.15625,-0.85938 -0.32813,-0.39062 -0.32813,-0.875 0,-0.54687 0.4375,-1.28125 0.45313,-0.73437 2.0625,-2.07812 z m 2.71875,-8.76563 q -1.15625,0 -1.9375,0.92188 -0.78125,0.92187 -0.78125,2.82812 0,2.46875 1.0625,3.82813 0.8125,1.03125 2.0625,1.03125 1.1875,0 1.95313,-0.89063 0.76562,-0.89062 0.76562,-2.79687 0,-2.48438 -1.07812,-3.89063 -0.79688,-1.03125 -2.04688,-1.03125 z m -2.875,13.98438 q -0.73437,0.79687 -1.10937,1.48437 -0.375,0.6875 -0.375,1.26563 0,0.75 0.90625,1.3125 1.5625,0.96875 4.51562,0.96875 2.8125,0 4.14063,-1 1.34375,-0.98438 1.34375,-2.10938 0,-0.8125 -0.79688,-1.15625 -0.8125,-0.34375 -3.21875,-0.40625 -3.51562,-0.0937 -5.40625,-0.35937 z m 17.59563,-14.73438 v 3.21875 q 1.79687,-3.21875 3.6875,-3.21875 0.85937,0 1.42187,0.53125 0.5625,0.51563 0.5625,1.20313 0,0.60937 -0.40625,1.03125 -0.40625,0.42187 -0.96875,0.42187 -0.54687,0 -1.23437,-0.53125 -0.67188,-0.54687 -1,-0.54687 -0.28125,0 -0.60938,0.3125 -0.70312,0.64062 -1.45312,2.10937 v 6.85938 q 0,1.1875 0.29687,1.79687 0.20313,0.42188 0.71875,0.70313 0.51563,0.28125 1.48438,0.28125 v 0.5625 h -7.32813 v -0.5625 q 1.09375,0 1.625,-0.34375 0.39063,-0.25 0.54688,-0.79688 0.0781,-0.26562 0.0781,-1.51562 v -5.54688 q 0,-2.5 -0.10937,-2.96875 -0.0937,-0.48437 -0.375,-0.70312 -0.26563,-0.21875 -0.67188,-0.21875 -0.48437,0 -1.09375,0.23437 l -0.15625,-0.5625 4.32813,-1.75 z m 9.955,5.8125 q -0.0156,3.1875 1.54687,5 1.5625,1.8125 3.67188,1.8125 1.40625,0 2.4375,-0.76562 1.04687,-0.78125 1.75,-2.65625 l 0.48437,0.3125 q -0.32812,2.14062 -1.90625,3.90625 -1.57812,1.75 -3.95312,1.75 -2.57813,0 -4.42188,-2 -1.82812,-2.01563 -1.82812,-5.40625 0,-3.67188 1.875,-5.71875 1.89062,-2.0625 4.73437,-2.0625 2.40625,0 3.95313,1.59375 1.54687,1.57812 1.54687,4.23437 z m 0,-0.90625 h 6.625 q -0.0781,-1.375 -0.32813,-1.9375 -0.39062,-0.875 -1.17187,-1.375 -0.76563,-0.5 -1.60938,-0.5 -1.29687,0 -2.32812,1.01563 -1.01563,1 -1.1875,2.79687 z m 15.28312,0.90625 q -0.0156,3.1875 1.54688,5 1.5625,1.8125 3.67187,1.8125 1.40625,0 2.4375,-0.76562 1.04688,-0.78125 1.75,-2.65625 l 0.48438,0.3125 q -0.32813,2.14062 -1.90625,3.90625 -1.57813,1.75 -3.95313,1.75 -2.57812,0 -4.42187,-2 -1.82813,-2.01563 -1.82813,-5.40625 0,-3.67188 1.875,-5.71875 1.89063,-2.0625 4.73438,-2.0625 2.40625,0 3.95312,1.59375 1.54688,1.57812 1.54688,4.23437 z m 0,-0.90625 h 6.625 q -0.0781,-1.375 -0.32812,-1.9375 -0.39063,-0.875 -1.17188,-1.375 -0.76562,-0.5 -1.60937,-0.5 -1.29688,0 -2.32813,1.01563 -1.01562,1 -1.1875,2.79687 z m 17.12688,-1.85937 q 1.5625,-1.5625 1.84375,-1.79688 0.70312,-0.59375 1.51562,-0.92187 0.8125,-0.32813 1.60938,-0.32813 1.34375,0 2.3125,0.78125 0.96875,0.78125 1.29687,2.26563 1.60938,-1.875 2.71875,-2.45313 1.10938,-0.59375 2.28125,-0.59375 1.14063,0 2.01563,0.59375 0.89062,0.57813 1.40625,1.90625 0.34375,0.90625 0.34375,2.84375 v 6.15625 q 0,1.34375 0.20312,1.84375 0.15625,0.34375 0.57813,0.59375 0.42187,0.23438 1.375,0.23438 v 0.5625 h -7.0625 v -0.5625 h 0.29687 q 0.92188,0 1.4375,-0.35938 0.35938,-0.25 0.51563,-0.79687 0.0625,-0.26563 0.0625,-1.51563 v -6.15625 q 0,-1.75 -0.42188,-2.46875 -0.60937,-1 -1.95312,-1 -0.82813,0 -1.67188,0.42188 -0.82812,0.40625 -2.01562,1.53125 l -0.0312,0.17187 0.0312,0.67188 v 6.82812 q 0,1.46875 0.15625,1.82813 0.17187,0.35937 0.625,0.60937 0.45312,0.23438 1.54687,0.23438 v 0.5625 h -7.23437 v -0.5625 q 1.1875,0 1.625,-0.28125 0.45312,-0.28125 0.625,-0.84375 0.0781,-0.26563 0.0781,-1.54688 v -6.15625 q 0,-1.75 -0.51562,-2.51562 -0.6875,-1 -1.92188,-1 -0.84375,0 -1.67187,0.45312 -1.29688,0.6875 -2,1.54688 v 7.67187 q 0,1.40625 0.1875,1.82813 0.20312,0.42187 0.57812,0.64062 0.39063,0.20313 1.5625,0.20313 v 0.5625 h -7.07812 v -0.5625 q 0.98437,0 1.375,-0.20313 0.39062,-0.21875 0.59375,-0.67187 0.20312,-0.46875 0.20312,-1.79688 v -5.46875 q 0,-2.35937 -0.14062,-3.04687 -0.10938,-0.51563 -0.34375,-0.70313 -0.23438,-0.20312 -0.64063,-0.20312 -0.4375,0 -1.04687,0.23437 l -0.23438,-0.5625 4.3125,-1.75 h 0.67188 z m 24.12687,2.76562 q -0.0156,3.1875 1.54688,5 1.5625,1.8125 3.67187,1.8125 1.40625,0 2.4375,-0.76562 1.04688,-0.78125 1.75,-2.65625 l 0.48438,0.3125 q -0.32813,2.14062 -1.90625,3.90625 -1.57813,1.75 -3.95313,1.75 -2.57812,0 -4.42187,-2 -1.82813,-2.01563 -1.82813,-5.40625 0,-3.67188 1.875,-5.71875 1.89063,-2.0625 4.73438,-2.0625 2.40625,0 3.95312,1.59375 1.54688,1.57812 1.54688,4.23437 z m 0,-0.90625 h 6.625 q -0.0781,-1.375 -0.32812,-1.9375 -0.39063,-0.875 -1.17188,-1.375 -0.76562,-0.5 -1.60937,-0.5 -1.29688,0 -2.32813,1.01563 -1.01562,1 -1.1875,2.79687 z m 17.04875,-1.875 q 2.51562,-3.03125 4.79687,-3.03125 1.17188,0 2.01563,0.59375 0.84375,0.57813 1.34375,1.92188 0.34375,0.9375 0.34375,2.875 v 6.10937 q 0,1.35938 0.21875,1.84375 0.17187,0.39063 0.54687,0.60938 0.39063,0.21875 1.42188,0.21875 v 0.5625 h -7.07813 v -0.5625 h 0.29688 q 1,0 1.39062,-0.29688 0.40625,-0.3125 0.5625,-0.90625 0.0625,-0.23437 0.0625,-1.46875 v -5.85937 q 0,-1.95313 -0.51562,-2.82813 -0.5,-0.89062 -1.70313,-0.89062 -1.85937,0 -3.70312,2.03125 v 7.54687 q 0,1.45313 0.17187,1.79688 0.21875,0.45312 0.59375,0.67187 0.39063,0.20313 1.5625,0.20313 v 0.5625 h -7.07812 v -0.5625 h 0.3125 q 1.09375,0 1.46875,-0.54688 0.39062,-0.5625 0.39062,-2.125 v -5.3125 q 0,-2.57812 -0.125,-3.14062 -0.10937,-0.5625 -0.35937,-0.76563 -0.23438,-0.20312 -0.64063,-0.20312 -0.4375,0 -1.04687,0.23437 l -0.23438,-0.5625 4.3125,-1.75 h 0.67188 z m 17.06438,-7.3125 v 4.70313 h 3.34375 v 1.09375 h -3.34375 v 9.28125 q 0,1.39062 0.39062,1.875 0.40625,0.48437 1.03125,0.48437 0.51563,0 1,-0.3125 0.48438,-0.32812 0.75,-0.95312 h 0.60938 q -0.54688,1.53125 -1.54688,2.3125 -1,0.76562 -2.0625,0.76562 -0.71875,0 -1.40625,-0.39062 -0.6875,-0.40625 -1.01562,-1.14063 -0.32813,-0.75 -0.32813,-2.29687 v -9.625 h -2.26562 v -0.51563 q 0.85937,-0.34375 1.75,-1.15625 0.90625,-0.82812 1.60937,-1.95312 0.35938,-0.59375 1,-2.17188 z"
         id="text2"
         style="font-size:32px;line-height:0;font-family:'Times New Roman';-inkscape-font-specification:'Times New Roman, Normal';letter-spacing:1.08px"
         aria-label="agreement" />
    </g>
  </g>
</svg>
