<?xml version="1.0" encoding="UTF-8" standalone="no"?>
<!-- Created with Inkscape (http://www.inkscape.org/) -->

<svg
   width="77.234924mm"
   height="77.234924mm"
   viewBox="0 0 77.234924 77.234924"
   version="1.1"
   id="svg1"
   xmlns="http://www.w3.org/2000/svg"
   xmlns:svg="http://www.w3.org/2000/svg">
  <defs
     id="defs1">
    <clipPath
       clipPathUnits="userSpaceOnUse"
       id="clipPath3">
      <rect
         style="fill:#000000;stroke-width:0.264583"
         id="rect4"
         width="91.040199"
         height="63.802761"
         x="68.653259"
         y="119.7701" />
    </clipPath>
  </defs>
  <g
     id="layer1"
     transform="translate(0,-73.503759)">
    <path
       style="fill:#ffffff;fill-opacity:1;stroke:#000000;stroke-opacity:1"
       d="m 126.60595,167.07999 c 5.91832,-1.76569 13.04063,-7.169 13.04063,-9.89323 0,-2.60068 -10.75173,-14.17575 -15.07146,-16.2256 -5.44985,-2.58612 -10.8931,-2.14028 -17.06124,1.39744 -6.26949,3.59587 -14.006724,12.12943 -14.016494,15.45913 -0.008,2.71172 5.47547,7.24187 11.267844,9.30896 5.25689,1.876 15.4693,1.85416 21.84072,-0.0467 z m -23.70318,-5.48924 c -5.137174,-3.54065 -5.386244,-4.71193 -1.79479,-8.44013 4.17556,-4.33457 5.04813,-4.30162 3.68521,0.13917 -0.85248,2.77762 -0.73468,4.25876 0.54229,6.8185 1.85039,3.7092 1.29189,4.04954 -2.43271,1.48246 z m 21.00882,0.81249 c 0,-0.4763 0.7123,-1.45715 1.58289,-2.17967 0.87059,-0.72252 1.87925,-3.16703 2.24147,-5.43224 l 0.65859,-4.11856 3.00272,2.87679 3.00273,2.87679 -2.22575,2.3692 c -2.34772,2.49903 -8.26265,5.08164 -8.26265,3.60769 z m -13.11617,-3.60378 c -2.86814,-4.37734 0.94658,-10.10709 6.72903,-10.10709 2.72086,0 5.61911,4.29531 4.67799,6.93294 -2.11598,5.93036 -8.44682,7.69199 -11.40702,3.17415 z m 36.98091,-10.83973 c 3.67578,-2.71823 4.39334,-5.24956 1.77312,-6.25504 -2.26178,-0.86792 -7.80487,4.65064 -7.80487,7.77035 0,2.72765 0.44542,2.61575 6.03175,-1.51531 z m -53.236724,1.20505 c 0,-2.61355 -3.07435,-7.8154 -4.61899,-7.8154 -0.77996,0 -1.96193,0.65526 -2.62659,1.45613 -0.94551,1.13926 -0.61077,2.16647 1.5383,4.72049 2.94289,3.49743 5.70728,4.29119 5.70728,1.63878 z m 42.926994,-12.5786 c 3.58029,-4.98546 3.65453,-7.82479 0.20459,-7.82479 -1.34119,0 -2.98391,1.68662 -4.7899,4.91789 -4.73422,8.47044 -1.07574,10.78977 4.58531,2.9069 z m -33.48599,-1.40235 c 0,-6.01937 -1.80056,-8.26585 -5.176854,-6.45891 -2.05511,1.09986 -2.08374,1.35009 -0.56912,4.97508 3.376534,8.08117 5.745974,8.69305 5.745974,1.48383 z m 17.32144,-4.36345 c 0.96529,-2.9062 1.49009,-5.97453 1.16623,-6.81849 -0.71189,-1.85515 -3.95337,-2.0122 -5.68988,-0.27569 -1.32272,1.32271 -1.76125,10.47707 -0.55947,11.67885 1.78668,1.78667 3.47169,0.26689 5.08312,-4.58467 z"
       id="path1"
       clip-path="url(#clipPath3)"
       transform="translate(-80.342812,-33.403066)" />
    <rect
       style="fill:none;stroke:none;stroke-width:0.264583"
       id="rect1"
       width="77.234924"
       height="77.234924"
       x="0"
       y="73.503761" />
  </g>
</svg>
